<?xml version="1.0" encoding="UTF-8"?>
<svg id="Ebene_2" data-name="Ebene 2" xmlns="http://www.w3.org/2000/svg" viewBox="0 0 676.98 297.81">
  <defs>
    <style>
      .cls-1 {
        fill: none;
        stroke: #fff;
        stroke-miterlimit: 10;
      }
    </style>
  </defs>
  <g id="Layer_1" data-name="Layer 1">
    <path class="cls-1" d="M172.88,281.6c12.6,1.8,37.9,4.2,50.5,5.2,69.4,5.8,81.4,5.7,111.1,6.9,166.1,6.9,342,1.8,342,1.8l-2.6-269.5H393.18l-24.5,1.6,6.8-27.1h-4.2l-19.3,27.9s-65.5,2.1-129.1,18.1c-43.2,10.9-85.6,28.1-106,55.5l-25.8,26.6S2.38,158.8,.58,200.3c-.2,6-7.1,56.1,172.3,81.3Z"/>
    <polygon class="cls-1" points="98.48 130.2 120.08 127 142.58 102.2 142.58 99.5 117.58 101.3 92.68 127 98.48 130.2"/>
    <polygon class="cls-1" points="152.88 98.6 131.68 122.2 131.68 126.6 149.88 132.2 168.78 132.2 170.48 129.6 170.48 99.8 168.38 97.8 152.88 98.6"/>
    <polygon class="cls-1" points="178.58 130.8 181.18 133.9 206.18 133.9 209.08 130.8 209.08 108 200.58 99.2 181.38 99.2 178.58 101.6 178.58 130.8"/>
    <polygon class="cls-1" points="207.98 138.4 198.38 138.4 178.38 138.4 174.28 133.4 174.28 98.3 179.08 94.4 203.58 94.4 213.48 104.7 213.48 132.9 207.98 138.4"/>
    <line class="cls-1" x1="174.28" y1="62.3" x2="174.28" y2="98.3"/>
    <polyline class="cls-1" points="222.98 286.8 222.98 281.3 222.98 46.5"/>
    <polyline class="cls-1" points="50.58 147 61.18 169 61.18 255.9"/>
    <path class="cls-1" d="M8.28,222.6l4.6-3.8s30.8,24.5,48.3,24"/>
    <line class="cls-1" x1="12.88" y1="200.1" x2="61.18" y2="198.8"/>
    <path class="cls-1" d="M13.68,186.5s21.4-19,43.1-26.7"/>
    <path class="cls-1" d="M61.18,218.9s86.9,7.6,161.8,7.6h235v68"/>
    <line class="cls-1" x1="457.88" y1="253.5" x2="676.18" y2="253.5"/>
    <polyline class="cls-1" points="457.88 26.1 457.88 148 457.88 226.4"/>
    <line class="cls-1" x1="675.08" y1="148" x2="457.88" y2="148"/>
    <line class="cls-1" x1="457.88" y1="38.1" x2="674.08" y2="38.1"/>
    <path class="cls-1" d="M222.98,58.4s30.9-10.2,234.9-11.9"/>
    <polygon class="cls-1" points="436.58 31.9 441.48 32.7 443.28 27.6 441.28 27.6 436.58 31.9"/>
    <polygon class="cls-1" points="292.78 183.1 292.78 189.4 299.58 195.1 363.98 195.1 370.78 190.7 370.78 183.1 362.48 182.1 361.48 186.3 359.68 188.6 354.68 189.4 305.08 189.4 300.58 185.8 298.48 182.5 292.78 183.1"/>
    <circle class="cls-1" cx="344.68" cy="116.1" r="6.1"/>
    <polyline class="cls-1" points="322.78 129 319.58 129 318.28 126.2 318.28 123.1 320.98 120.8 320.98 112.5 319.38 110.8 319.38 106.9 326.08 106.9 326.08 110.8 324.48 112.5 324.48 120.8 327.28 123.1 327.28 126.2 325.88 129 322.78 129"/>
    <path class="cls-1" d="M256.98,243.6h22.7s2.9,.6,3.7,4.1v24.5s.3,4-4.5,4.1-22.3,0-22.3,0c0,0-3.5,.2-3.5-4.3v-24.7s0-3.5,3.9-3.7Z"/>
    <path class="cls-1" d="M210.28,243.6h6.3s2,.2,2.2,2.7c.1,2.5,0,24.8,0,24.8,0,0-.3,2.6-3.3,2.7-3,.1-5.6,0-5.6,0,0,0-2.9-.6-2.8-2.7,.1-2.2,0-24.5,0-24.5,0,0-.3-3,3.2-3Z"/>
    <polygon class="cls-1" points="189.68 241.4 185.68 244.1 178.58 244.1 178.58 245.6 192.78 245.6 196.08 243 195.08 241.4 189.68 241.4"/>
    <polygon class="cls-1" points="195.28 266.3 200.08 266.3 200.78 267.9 197.08 271.3 184.38 271.3 184.38 269.9 191.58 269.9 195.28 266.3"/>
    <circle class="cls-1" cx="440.58" cy="216.1" r="7.5"/>
    <line class="cls-1" x1="436.78" y1="216.1" x2="444.38" y2="216.1"/>
    <path class="cls-1" d="M421.18,248.1v22.5s-.6,4.7,5.5,4.7h26.2s5.1,1,5.1-4.3v-23.9s-.4-3.3-5.5-3.5-27.2,0-27.2,0c0,0-4.1,.4-4.1,4.5Z"/>
    <path class="cls-1" d="M432.08,253.5s-4.7-.1-4.7,5,4.7,6.1,4.7,6.1h16.8s3.3-1.6,3.5-5.5-4.4-5.5-4.4-5.5l-15.9-.1Z"/>
    <circle class="cls-1" cx="434.68" cy="259.1" r="1.6"/>
    <circle class="cls-1" cx="444.58" cy="259.1" r="1.6"/>
    <polygon class="cls-1" points="271.88 260 268.18 260 258.78 261.6 258.78 262.9 268.18 263.9 271.88 263.9 273.78 261.9 271.88 260"/>
    <path class="cls-1" d="M98.68,190.6v21.5s-.8,4.1,4.9,4.3,17.9,0,17.9,0c0,0,4.5-.6,4.5-5.1v-20.2s.8-4.7-4.5-4.6c-5.3,.1-18.4,0-18.4,0,0,0-4.4-.1-4.4,4.1Z"/>
    <circle class="cls-1" cx="112.28" cy="201.5" r="9.2"/>
    <circle class="cls-1" cx="112.28" cy="201.5" r="1.8"/>
    <ellipse class="cls-1" cx="398.78" cy="261.1" rx="7.1" ry="4.5"/>
    <path class="cls-1" d="M395.68,114.2v13.8s1.2,5.1,6.1,5.2,5,.1,5,.1c0,0,5.7-.4,5.9-4.4s0-14.7,0-14.7c0,0-1.7-4.2-5.5-4.2h-6s-3.9-.3-5.5,4.2Z"/>
    <path class="cls-1" d="M430.38,114.2v13.8s1.2,5.1,6.1,5.2l5,.1s5.7-.4,5.9-4.4,0-14.7,0-14.7c0,0-1.7-4.2-5.5-4.2-3.8-.1-6,0-6,0,0,0-3.9-.3-5.5,4.2Z"/>
    <path class="cls-1" d="M465.68,114.2v13.8s1.2,5.1,6.1,5.2l5,.1s5.7-.4,5.9-4.4,0-14.7,0-14.7c0,0-1.7-4.2-5.5-4.2-3.8-.1-6,0-6,0,0,0-3.9-.3-5.5,4.2Z"/>
    <path class="cls-1" d="M501.98,114.2v13.8s1.2,5.1,6.1,5.2l5,.1s5.7-.4,5.9-4.4,0-14.7,0-14.7c0,0-1.7-4.2-5.5-4.2h-6s-3.9-.3-5.5,4.2Z"/>
    <path class="cls-1" d="M535.98,114.2v13.8s1.2,5.1,6.1,5.2,5,.1,5,.1c0,0,5.7-.4,5.9-4.4s0-14.7,0-14.7c0,0-1.7-4.2-5.5-4.2h-6s-4-.3-5.5,4.2Z"/>
    <path class="cls-1" d="M570.98,114.2v13.8s1.2,5.1,6.1,5.2l5,.1s5.7-.4,5.9-4.4,0-14.7,0-14.7c0,0-1.7-4.2-5.5-4.2-3.8-.1-6,0-6,0,0,0-3.9-.3-5.5,4.2Z"/>
    <path class="cls-1" d="M607.18,114.2v13.8s1.2,5.1,6.1,5.2,5,.1,5,.1c0,0,5.7-.4,5.9-4.4s0-14.7,0-14.7c0,0-1.7-4.2-5.5-4.2h-6s-3.9-.3-5.5,4.2Z"/>
    <path class="cls-1" d="M641.28,114.2v13.8s1.2,5.1,6.1,5.2l5,.1s5.7-.4,5.9-4.4,0-14.7,0-14.7c0,0-1.7-4.2-5.5-4.2-3.8-.1-6,0-6,0,0,0-3.9-.3-5.5,4.2Z"/>
    <polygon class="cls-1" points="194.38 266.7 190.38 269.4 183.28 269.4 183.28 270.9 197.48 270.9 200.78 268.3 199.78 266.7 194.38 266.7"/>
    <path class="cls-1" d="M362.48,182.1V62.3s-.1-8.1-9.6-8.1h-45.3s-8.8-.3-9.1,8.1v120.2"/>
    <polyline class="cls-1" points="298.48 73.1 303.88 73.1 306.78 64.4 330.48 64.4"/>
    <polyline class="cls-1" points="362.48 73.1 357.08 73.1 354.18 64.4 330.48 64.4"/>
    <path class="cls-1" d="M61.18,226.7s-9.6-1.6-12.2-2.9l-1.4,2.3s7.1,3.2,13.7,3.7"/>
  </g>
</svg>