<svg xmlns="http://www.w3.org/2000/svg" width="808" height="165" viewBox="0 0 808 165">
  <defs>
    <style>
      .cls-1 {
        fill: #fff;
        fill-rule: evenodd;
      }
    </style>
  </defs>
  <path id="SimLink" class="cls-1" d="M807.094,160.5H776.138L726.87,103.82V160.5H703.653L703.762,3.54H726.87V99.46l46.216-56.68H802.08l-48.832,58.86ZM652.316,102.621a90.474,90.474,0,0,0-1.145-14.115,44.032,44.032,0,0,0-4.36-13.461,26.161,26.161,0,0,0-9.047-10.028Q631.932,61.2,622.559,61.2a33.027,33.027,0,0,0-11.554,2.017,24.158,24.158,0,0,0-9.538,6.486,31.4,31.4,0,0,0-6.431,11.772,58.639,58.639,0,0,0-2.343,17.767V160.5H569.585V42.78h20.383V56.906a44.339,44.339,0,0,1,11.772-10.42q11.224-6.867,27.141-6.867,12.206,0,20.492,3.924a37.919,37.919,0,0,1,13.461,10.3,47.755,47.755,0,0,1,7.9,13.9,71.718,71.718,0,0,1,3.706,14.715,95,95,0,0,1,.981,12.644v65.4H652.316V102.621ZM514.214,42.78H537V160.5H514.214V42.78Zm0-41.42H537V23.487H514.214V1.36ZM399.655,3.54h22.781V139.027H493.5V160.5H399.655V3.54ZM346.248,160.5l0.109-73.357q0-12.753-6.54-19.892T322.6,60.111a24.167,24.167,0,0,0-11.936,3,22.475,22.475,0,0,0-8.72,8.938q-3.326,5.942-3.324,14.879l-0.007,0-0.1,73.579H275.725l0.109-72.921q0-12.86-6.486-20.165t-17.385-7.3q-10.791,0-17.386,7.412t-6.594,19.4V160.5h-22.89V42.78h20.274V55.447a40.222,40.222,0,0,1,12.317-10.378,43.7,43.7,0,0,1,21.473-5.232q12.533,0,21.364,5.286A34.282,34.282,0,0,1,293.4,58.74,38.385,38.385,0,0,1,307.88,45.015a43.632,43.632,0,0,1,21.255-5.177q19.073,0,29.539,11.445t10.464,30.411L369.029,160.5H346.248ZM149.722,42.78H172.5V160.5H149.722V42.78Zm0-41.42H172.5V23.487H149.722V1.36ZM43.394,61.256a92.376,92.376,0,0,0,11.173,3.87L83.56,73.3q5.449,1.528,12.371,4.088a58.418,58.418,0,0,1,13.407,7.139,36.394,36.394,0,0,1,10.736,12.153q4.251,7.577,4.251,19.021A42.487,42.487,0,0,1,106.4,151.616a59.958,59.958,0,0,1-19.238,9.1,84.951,84.951,0,0,1-23,3.052,76.458,76.458,0,0,1-30.465-5.831,57.269,57.269,0,0,1-22.345-16.677A55.39,55.39,0,0,1-.043,115.483l23.762-3.6q3.6,14.388,15.042,22.4t26.7,8.011a49.086,49.086,0,0,0,17.44-3,30.954,30.954,0,0,0,12.807-8.611,19.907,19.907,0,0,0,4.85-13.462,17.556,17.556,0,0,0-5.5-13.243,24.676,24.676,0,0,0-6.213-4.251,51.884,51.884,0,0,0-8.012-3.106L40.614,84.745a91.933,91.933,0,0,1-11.99-4.523,44.178,44.178,0,0,1-11.172-7.3A34.584,34.584,0,0,1,9.222,61.692q-3.163-6.7-3.161-16.3,0-14.5,7.467-24.579a46.058,46.058,0,0,1,20.22-15.26A75.323,75.323,0,0,1,62.305.379a73.711,73.711,0,0,1,28.5,5.668,54.613,54.613,0,0,1,20.928,15.642,57.74,57.74,0,0,1,11.5,24.689L98.82,50.519a32.415,32.415,0,0,0-6.976-15.205,35.719,35.719,0,0,0-13.08-9.81,42.215,42.215,0,0,0-16.786-3.543A40.671,40.671,0,0,0,46.01,24.577a28.091,28.091,0,0,0-11.554,7.957A17.768,17.768,0,0,0,30.15,44.306a14.748,14.748,0,0,0,3.815,10.573A27.167,27.167,0,0,0,43.394,61.256Z"/>
</svg>
