<svg xmlns="http://www.w3.org/2000/svg" xmlns:xlink="http://www.w3.org/1999/xlink" width="863" height="165" viewBox="0 0 863 165">
  <defs>
    <style>
      .cls-1 {
        fill: #fff;
        fill-rule: evenodd;
        filter: url(#filter);
      }
    </style>
    <filter id="filter" x="0.375" y="0.281" width="861.844" height="163.5" filterUnits="userSpaceOnUse">
      <feFlood result="flood" flood-color="#2a3342"/>
      <feComposite result="composite" operator="in" in2="SourceGraphic"/>
      <feBlend result="blend" in2="SourceGraphic"/>
    </filter>
  </defs>
  <path id="A318ceo" class="cls-1" d="M0.36,160.5H24.013l11.445-35.425H99.877L111.54,160.5h23.653L84.181,3.54H51.372Zm42.074-56.789L67.5,26.321l25.4,77.39H42.434Zm156.3,59.732a53.362,53.362,0,0,0,26.487-6.7,50.064,50.064,0,0,0,18.966-18.476,50.97,50.97,0,0,0,6.976-26.487,54.11,54.11,0,0,0-5.014-23.38,45.048,45.048,0,0,0-14.333-17.44,46.462,46.462,0,0,0-21.746-8.448l38.8-37.278V3.54H154.484V25.231h66.49l-47.96,42.4L183.7,85.617a31.005,31.005,0,0,1,14.824-3.924,29.792,29.792,0,0,1,15.26,3.87A27.028,27.028,0,0,1,224.135,96.3a32.072,32.072,0,0,1,3.706,15.478,31.687,31.687,0,0,1-3.76,15.478,27.281,27.281,0,0,1-10.464,10.737,29.857,29.857,0,0,1-15.206,3.869,29.246,29.246,0,0,1-17.44-5.45,28.52,28.52,0,0,1-10.682-15.369l-22.018,6.1a48.971,48.971,0,0,0,10.737,19.239,50.62,50.62,0,0,0,17.767,12.644,55.176,55.176,0,0,0,21.963,4.414h0ZM306.865,160.5h23.217V3.54H306.865L277.326,21.2V46.6L306.865,28.61V160.5Zm114.885,3.27a58.572,58.572,0,0,0,27.141-6.158,45.7,45.7,0,0,0,18.693-17.277,48.213,48.213,0,0,0,6.7-25.4,49.534,49.534,0,0,0-4.905-21.963A42.857,42.857,0,0,0,455.1,76.352a39.611,39.611,0,0,0,11.281-14.279,42.78,42.78,0,0,0,3.761-18.094q0-13.187-6.159-23.108a40.609,40.609,0,0,0-17.113-15.26,61.891,61.891,0,0,0-50.3,0A40.527,40.527,0,0,0,379.4,20.871q-6.159,9.92-6.158,23.108a41.6,41.6,0,0,0,3.869,17.931,42.672,42.672,0,0,0,11.173,14.443,42.88,42.88,0,0,0-14.17,16.677,50.1,50.1,0,0,0-4.8,21.909,48.212,48.212,0,0,0,6.7,25.4,45.865,45.865,0,0,0,18.585,17.277q11.879,6.156,27.141,6.158h0Zm-28.34-48.832q0-13.08,7.684-20.219t20.656-7.14q12.971,0,20.655,7.14t7.685,20.219q0,12.972-7.685,20.056t-20.655,7.085q-12.974,0-20.656-7.03t-7.684-20.111h0Zm4.033-70.959q0-10.791,6.594-16.4t17.713-5.614q11.118,0,17.658,5.614t6.54,16.4q0,10.684-6.54,16.241T421.75,65.779q-11.118,0-17.713-5.559t-6.594-16.241h0ZM552.983,163.77q18.966,0,32.264-9.156t19.075-26.487l-23.108-5.45q-3.707,9.7-10.628,14.66t-17.6,4.96q-15.805,0-24.2-10.954t-8.5-29.7q0.106-18.529,8.338-29.594t24.362-11.063a29.268,29.268,0,0,1,17.6,5.559A30.727,30.727,0,0,1,581.65,81.911l22.672-6.54A46.415,46.415,0,0,0,594.239,56.3,47.481,47.481,0,0,0,576.581,43.87a60.232,60.232,0,0,0-23.271-4.36q-17.44,0-30.357,7.848a51.71,51.71,0,0,0-19.838,21.964q-6.923,14.117-7.03,32.319,0.107,18.094,6.867,32.155a51.636,51.636,0,0,0,19.565,22.018q12.807,7.956,30.466,7.957h0Zm122.515,0A57.368,57.368,0,0,0,706.672,155a52.9,52.9,0,0,0,20.71-24.362l-22.345-7.085A31.933,31.933,0,0,1,692.829,137.5a34.619,34.619,0,0,1-18.421,4.8q-14.825,0-23.326-8.884t-9.919-25.342h87.745q0.217-4.359.218-6.431,0-19.073-6.594-33.082A48.926,48.926,0,0,0,703.62,47.031Q691.3,39.51,674.408,39.51q-17.114,0-30.193,7.739a52.227,52.227,0,0,0-20.274,22.018q-7.194,14.281-7.194,33.354,0,17.985,7.358,31.882a53.023,53.023,0,0,0,20.655,21.583q13.3,7.683,30.738,7.684h0ZM641.708,90.3q2.179-15.042,10.628-22.835t22.944-7.794q13.515,0,20.983,7.521T705.582,90.3H641.708ZM804.444,163.77q17.331,0,30.411-7.848a52.783,52.783,0,0,0,20.22-21.964q7.137-14.113,7.139-32.427,0-18.092-7.085-32.21A52.337,52.337,0,0,0,834.91,47.358q-13.135-7.848-30.466-7.848-17.113,0-30.193,7.794a52.871,52.871,0,0,0-20.274,21.855q-7.194,14.061-7.194,32.373,0,18.2,7.085,32.319a52.788,52.788,0,0,0,20.165,22.018q13.08,7.9,30.411,7.9h0Zm-33.463-62.239q0-18.746,8.448-29.648t25.015-10.9q16.35,0,24.961,10.846t8.611,29.7q0,18.639-8.611,29.7T804.444,142.3q-16.242,0-24.852-10.9t-8.611-29.866h0Z"/>
</svg>
