<svg xmlns="http://www.w3.org/2000/svg" xmlns:xlink="http://www.w3.org/1999/xlink" width="867" height="165" viewBox="0 0 867 165">
  <defs>
    <style>
      .cls-1 {
        fill: #fff;
        fill-rule: evenodd;
        filter: url(#filter);
      }
    </style>
    <filter id="filter" x="0.375" y="0.375" width="866.187" height="163.406" filterUnits="userSpaceOnUse">
      <feFlood result="flood" flood-color="#2a3342"/>
      <feComposite result="composite" operator="in" in2="SourceGraphic"/>
      <feBlend result="blend" in2="SourceGraphic"/>
    </filter>
  </defs>
  <path id="A319ceo" class="cls-1" d="M0.36,160.5H24.013l11.445-35.425H99.877L111.54,160.5h23.653L84.181,3.54H51.372Zm42.074-56.789L67.5,26.321l25.4,77.39H42.434Zm156.3,59.732a53.362,53.362,0,0,0,26.487-6.7,50.064,50.064,0,0,0,18.966-18.476,50.97,50.97,0,0,0,6.976-26.487,54.11,54.11,0,0,0-5.014-23.38,45.048,45.048,0,0,0-14.333-17.44,46.462,46.462,0,0,0-21.746-8.448l38.8-37.278V3.54H154.484V25.231h66.49l-47.96,42.4L183.7,85.617a31.005,31.005,0,0,1,14.824-3.924,29.792,29.792,0,0,1,15.26,3.87A27.028,27.028,0,0,1,224.135,96.3a32.072,32.072,0,0,1,3.706,15.478,31.687,31.687,0,0,1-3.76,15.478,27.281,27.281,0,0,1-10.464,10.737,29.857,29.857,0,0,1-15.206,3.869,29.246,29.246,0,0,1-17.44-5.45,28.52,28.52,0,0,1-10.682-15.369l-22.018,6.1a48.971,48.971,0,0,0,10.737,19.239,50.62,50.62,0,0,0,17.767,12.644,55.176,55.176,0,0,0,21.963,4.414h0ZM306.865,160.5h23.217V3.54H306.865L277.326,21.2V46.6L306.865,28.61V160.5ZM422.513,0.379a54.158,54.158,0,0,0-46.543,26.16,50.3,50.3,0,0,0-7.3,26.487A52.81,52.81,0,0,0,375.261,79.3a48.458,48.458,0,0,0,18.2,18.53,50.711,50.711,0,0,0,26,6.758,46.733,46.733,0,0,0,18.366-3.706,48,48,0,0,0,15.424-10.355V109.27a33.187,33.187,0,0,1-16.023,28.34,32.05,32.05,0,0,1-17,4.578A31.175,31.175,0,0,1,406,138.809a32.825,32.825,0,0,1-11.281-9.265l-16.677,15.587a52.533,52.533,0,0,0,18.8,13.9,57.737,57.737,0,0,0,23.381,4.741q16.457,0,29.266-7.194a50.275,50.275,0,0,0,19.893-20.219q7.084-13.024,7.085-30.03V56.3a57.676,57.676,0,0,0-7.14-28.667A52.659,52.659,0,0,0,422.513.379h0ZM391.775,53.026A29.819,29.819,0,0,1,395.917,37.6,31.073,31.073,0,0,1,407.089,26.43a30.787,30.787,0,0,1,30.847,0,30.963,30.963,0,0,1,11.173,11.227,30.686,30.686,0,0,1,0,30.793,30.947,30.947,0,0,1-11.227,11.173,30.89,30.89,0,0,1-30.9,0A30.635,30.635,0,0,1,395.862,68.45a30.135,30.135,0,0,1-4.087-15.423h0ZM557.344,163.77q18.966,0,32.264-9.156t19.075-26.487l-23.108-5.45q-3.707,9.7-10.628,14.66t-17.6,4.96q-15.806,0-24.2-10.954t-8.5-29.7q0.107-18.529,8.338-29.594t24.362-11.063a29.268,29.268,0,0,1,17.6,5.559,30.727,30.727,0,0,1,11.064,15.369l22.672-6.54A46.415,46.415,0,0,0,598.6,56.3,47.481,47.481,0,0,0,580.942,43.87a60.232,60.232,0,0,0-23.271-4.36q-17.441,0-30.357,7.848a51.71,51.71,0,0,0-19.838,21.964q-6.923,14.117-7.03,32.319,0.106,18.094,6.867,32.155a51.636,51.636,0,0,0,19.565,22.018q12.807,7.956,30.466,7.957h0Zm122.515,0A57.368,57.368,0,0,0,711.033,155a52.9,52.9,0,0,0,20.71-24.362L709.4,123.549A31.933,31.933,0,0,1,697.19,137.5a34.619,34.619,0,0,1-18.421,4.8q-14.825,0-23.326-8.884t-9.919-25.342h87.745q0.217-4.359.218-6.431,0-19.073-6.594-33.082a48.926,48.926,0,0,0-18.912-21.527q-12.318-7.521-29.212-7.521-17.113,0-30.193,7.739A52.227,52.227,0,0,0,628.3,69.267q-7.194,14.281-7.194,33.354,0,17.985,7.358,31.882a53.023,53.023,0,0,0,20.655,21.583q13.3,7.683,30.738,7.684h0ZM646.069,90.3q2.18-15.042,10.628-22.835t22.944-7.794q13.515,0,20.983,7.521T709.943,90.3H646.069ZM808.805,163.77q17.331,0,30.411-7.848a52.789,52.789,0,0,0,20.22-21.964q7.137-14.113,7.139-32.427,0-18.092-7.085-32.21a52.337,52.337,0,0,0-20.219-21.964q-13.137-7.848-30.466-7.848-17.114,0-30.193,7.794a52.871,52.871,0,0,0-20.274,21.855q-7.194,14.061-7.194,32.373,0,18.2,7.085,32.319a52.788,52.788,0,0,0,20.165,22.018q13.08,7.9,30.411,7.9h0Zm-33.463-62.239q0-18.746,8.448-29.648t25.015-10.9q16.35,0,24.961,10.846t8.611,29.7q0,18.639-8.611,29.7T808.805,142.3q-16.242,0-24.852-10.9t-8.611-29.866h0Z"/>
</svg>
