<svg xmlns="http://www.w3.org/2000/svg" width="908" height="165" viewBox="0 0 908 165">
  <defs>
    <style>
      .cls-1 {
        fill: #1e1e1e;
        fill-rule: evenodd;
      }
    </style>
  </defs>
  <path id="A320ceo" class="cls-1" d="M0.36,160.5H24.013l11.445-35.425H99.877L111.54,160.5h23.653L84.181,3.54H51.372Zm42.074-56.789L67.5,26.321l25.4,77.39H42.434Zm156.3,59.732a53.362,53.362,0,0,0,26.487-6.7,50.064,50.064,0,0,0,18.966-18.476,50.97,50.97,0,0,0,6.976-26.487,54.11,54.11,0,0,0-5.014-23.38,45.048,45.048,0,0,0-14.333-17.44,46.462,46.462,0,0,0-21.746-8.448l38.8-37.278V3.54H154.484V25.231h66.49l-47.96,42.4L183.7,85.617a31.005,31.005,0,0,1,14.824-3.924,29.792,29.792,0,0,1,15.26,3.87A27.028,27.028,0,0,1,224.135,96.3a32.072,32.072,0,0,1,3.706,15.478,31.687,31.687,0,0,1-3.76,15.478,27.281,27.281,0,0,1-10.464,10.737,29.857,29.857,0,0,1-15.206,3.869,29.246,29.246,0,0,1-17.44-5.45,28.52,28.52,0,0,1-10.682-15.369l-22.018,6.1a48.971,48.971,0,0,0,10.737,19.239,50.62,50.62,0,0,0,17.767,12.644,55.176,55.176,0,0,0,21.963,4.414h0Zm76.408-3.052H381.311V138.7H310.353l45.453-40.548a152.374,152.374,0,0,0,14.769-14.606,44.568,44.568,0,0,0,8.012-13.68,52.478,52.478,0,0,0,2.724-17.931A52,52,0,0,0,374.5,25.5a48.985,48.985,0,0,0-18.693-18.53A52.964,52.964,0,0,0,329.319.27a58.1,58.1,0,0,0-27.686,6.486A47.67,47.67,0,0,0,282.558,24.85,51.346,51.346,0,0,0,275.691,51.5h23.326a28.359,28.359,0,0,1,3.76-14.66,29.021,29.021,0,0,1,10.737-10.846,29.791,29.791,0,0,1,15.369-4.033,29.158,29.158,0,0,1,14.933,3.87,27.144,27.144,0,0,1,10.355,10.682,31.1,31.1,0,0,1,3.7,15.1,30.748,30.748,0,0,1-3.215,13.734q-3.216,6.54-11.063,13.516l-68.343,61.258Zm187.041,3.379a56.331,56.331,0,0,0,28.231-7.03,50.575,50.575,0,0,0,19.457-19.457,56.318,56.318,0,0,0,7.03-28.231V54.988a56.322,56.322,0,0,0-7.03-28.231A50.567,50.567,0,0,0,490.418,7.3a60.2,60.2,0,0,0-56.462,0A50.564,50.564,0,0,0,414.5,26.757a56.322,56.322,0,0,0-7.031,28.231v54.064a56.318,56.318,0,0,0,7.031,28.231,50.572,50.572,0,0,0,19.456,19.457,56.328,56.328,0,0,0,28.231,7.03h0Zm-31.5-53.3V53.353a31.3,31.3,0,0,1,31.5-31.392,31.223,31.223,0,0,1,31.5,31.392v57.116a31.5,31.5,0,1,1-63,0h0Zm167.1,53.3q18.966,0,32.264-9.156t19.075-26.487l-23.108-5.45q-3.707,9.7-10.627,14.66t-17.6,4.96q-15.806,0-24.2-10.954t-8.5-29.7q0.108-18.529,8.339-29.594t24.361-11.063a29.269,29.269,0,0,1,17.6,5.559A30.726,30.726,0,0,1,626.45,81.911l22.672-6.54A46.425,46.425,0,0,0,639.04,56.3,47.5,47.5,0,0,0,621.382,43.87a60.241,60.241,0,0,0-23.272-4.36q-17.441,0-30.356,7.848a51.7,51.7,0,0,0-19.838,21.964q-6.924,14.117-7.031,32.319,0.108,18.094,6.867,32.155a51.632,51.632,0,0,0,19.566,22.018q12.806,7.956,30.465,7.957h0Zm122.515,0A57.368,57.368,0,0,0,751.472,155a52.9,52.9,0,0,0,20.71-24.362l-22.345-7.085A31.933,31.933,0,0,1,737.629,137.5a34.619,34.619,0,0,1-18.421,4.8q-14.824,0-23.326-8.884t-9.919-25.342h87.745q0.217-4.359.218-6.431,0-19.073-6.594-33.082A48.926,48.926,0,0,0,748.42,47.031Q736.1,39.51,719.208,39.51q-17.114,0-30.193,7.739a52.227,52.227,0,0,0-20.274,22.018q-7.194,14.281-7.194,33.354,0,17.985,7.358,31.882a53.023,53.023,0,0,0,20.655,21.583q13.3,7.683,30.738,7.684h0ZM686.508,90.3q2.179-15.042,10.628-22.835t22.944-7.794q13.515,0,20.983,7.521T750.382,90.3H686.508ZM849.245,163.77q17.331,0,30.411-7.848a52.787,52.787,0,0,0,20.219-21.964q7.139-14.113,7.14-32.427,0-18.092-7.085-32.21a52.346,52.346,0,0,0-20.22-21.964q-13.136-7.848-30.465-7.848-17.115,0-30.193,7.794a52.871,52.871,0,0,0-20.274,21.855q-7.194,14.061-7.194,32.373,0,18.2,7.085,32.319a52.781,52.781,0,0,0,20.165,22.018q13.08,7.9,30.411,7.9h0Zm-33.463-62.239q0-18.746,8.447-29.648t25.016-10.9q16.35,0,24.961,10.846t8.611,29.7q0,18.639-8.611,29.7T849.245,142.3q-16.243,0-24.852-10.9t-8.611-29.866h0Z"/>
</svg>
