<svg xmlns="http://www.w3.org/2000/svg" width="872" height="165" viewBox="0 0 872 165">
  <defs>
    <style>
      .cls-1 {
        fill: #fff;
        fill-rule: evenodd;
      }
    </style>
  </defs>
  <path id="A321neo" class="cls-1" d="M0.36,160.5H24.013l11.445-35.425H99.877L111.54,160.5h23.653L84.181,3.54H51.372Zm42.074-56.789L67.5,26.321l25.4,77.39H42.434Zm156.3,59.732a53.362,53.362,0,0,0,26.487-6.7,50.064,50.064,0,0,0,18.966-18.476,50.97,50.97,0,0,0,6.976-26.487,54.11,54.11,0,0,0-5.014-23.38,45.048,45.048,0,0,0-14.333-17.44,46.462,46.462,0,0,0-21.746-8.448l38.8-37.278V3.54H154.484V25.231h66.49l-47.96,42.4L183.7,85.617a31.005,31.005,0,0,1,14.824-3.924,29.792,29.792,0,0,1,15.26,3.87A27.028,27.028,0,0,1,224.135,96.3a32.072,32.072,0,0,1,3.706,15.478,31.687,31.687,0,0,1-3.76,15.478,27.281,27.281,0,0,1-10.464,10.737,29.857,29.857,0,0,1-15.206,3.869,29.246,29.246,0,0,1-17.44-5.45,28.52,28.52,0,0,1-10.682-15.369l-22.018,6.1a48.971,48.971,0,0,0,10.737,19.239,50.62,50.62,0,0,0,17.767,12.644,55.176,55.176,0,0,0,21.963,4.414h0Zm76.408-3.052H381.311V138.7H310.353l45.453-40.548a152.374,152.374,0,0,0,14.769-14.606,44.568,44.568,0,0,0,8.012-13.68,52.478,52.478,0,0,0,2.724-17.931A52,52,0,0,0,374.5,25.5a48.985,48.985,0,0,0-18.693-18.53A52.964,52.964,0,0,0,329.319.27a58.1,58.1,0,0,0-27.686,6.486A47.67,47.67,0,0,0,282.558,24.85,51.346,51.346,0,0,0,275.691,51.5h23.326a28.359,28.359,0,0,1,3.76-14.66,29.021,29.021,0,0,1,10.737-10.846,29.791,29.791,0,0,1,15.369-4.033,29.158,29.158,0,0,1,14.933,3.87,27.144,27.144,0,0,1,10.355,10.682,31.1,31.1,0,0,1,3.7,15.1,30.748,30.748,0,0,1-3.215,13.734q-3.216,6.54-11.063,13.516l-68.343,61.258ZM434.828,160.5h23.217V3.54H434.828L405.289,21.2V46.6L434.828,28.61V160.5Zm147.259-57.879V160.5H605.2V95.1a87.542,87.542,0,0,0-3.6-24.416,46.062,46.062,0,0,0-14.007-21.745q-10.41-9.319-28.939-9.319A53.623,53.623,0,0,0,536.2,44.088a44.405,44.405,0,0,0-16.459,12.753V42.78H499.356V160.5h23.108V99.242q0-19.727,8.229-28.885T552.33,61.2q16.894,0,23.326,12.045t6.431,29.375h0ZM684.33,163.77A57.37,57.37,0,0,0,715.5,155a52.909,52.909,0,0,0,20.71-24.362l-22.345-7.085A31.933,31.933,0,0,1,701.661,137.5a34.622,34.622,0,0,1-18.421,4.8q-14.825,0-23.326-8.884T650,108.071H737.74q0.217-4.359.218-6.431,0-19.073-6.595-33.082a48.918,48.918,0,0,0-18.911-21.527Q700.133,39.51,683.24,39.51q-17.113,0-30.193,7.739a52.227,52.227,0,0,0-20.274,22.018q-7.194,14.281-7.194,33.354,0,17.985,7.357,31.882a53.019,53.019,0,0,0,20.656,21.583q13.3,7.683,30.738,7.684h0ZM650.54,90.3q2.18-15.042,10.627-22.835t22.945-7.794q13.514,0,20.982,7.521t9.32,23.108H650.54ZM813.276,163.77q17.331,0,30.411-7.848a52.8,52.8,0,0,0,20.22-21.964q7.137-14.113,7.139-32.427,0-18.092-7.085-32.21a52.343,52.343,0,0,0-20.219-21.964q-13.137-7.848-30.466-7.848-17.114,0-30.193,7.794a52.871,52.871,0,0,0-20.274,21.855q-7.194,14.061-7.194,32.373,0,18.2,7.085,32.319a52.788,52.788,0,0,0,20.165,22.018q13.08,7.9,30.411,7.9h0Zm-33.463-62.239q0-18.746,8.448-29.648t25.015-10.9q16.35,0,24.961,10.846t8.611,29.7q0,18.639-8.611,29.7T813.276,142.3q-16.242,0-24.852-10.9t-8.611-29.866h0Z"/>
</svg>
