<svg xmlns="http://www.w3.org/2000/svg" width="692" height="165" viewBox="0 0 692 165">
  <defs>
    <style>
      .cls-1 {
        fill: #fff;
        fill-rule: evenodd;
      }
    </style>
  </defs>
  <path id="B787-9" class="cls-1" d="M0.26,160.5H67.84q14.715,0,25.288-5.613a38.212,38.212,0,0,0,16.132-15.969q5.559-10.355,5.559-24.2a40.8,40.8,0,0,0-6.268-22.454A38.248,38.248,0,0,0,90.73,77.551a31.947,31.947,0,0,0,12.263-12.862,39.713,39.713,0,0,0,4.414-18.966,42.667,42.667,0,0,0-5.232-20.655A39.776,39.776,0,0,0,86.643,9.481q-10.3-5.94-24.688-5.94H0.26V160.5Zm23.108-21.691v-49.7h42.4a27.367,27.367,0,0,1,13.516,3.27,22.6,22.6,0,0,1,9.047,9.047,26.358,26.358,0,0,1,3.161,12.862,23.823,23.823,0,0,1-3.488,13.026,23.132,23.132,0,0,1-9.646,8.5,31.6,31.6,0,0,1-14.007,3H23.368Zm0-71.177V25.013H61.627A25.112,25.112,0,0,1,73.4,27.684,19.247,19.247,0,0,1,81.3,35.1a21.044,21.044,0,0,1,2.779,10.846A22.029,22.029,0,0,1,81.138,57.5a19.638,19.638,0,0,1-8.066,7.521,24.805,24.805,0,0,1-11.445,2.616H23.368ZM144.685,160.5h24.634L224.364,25.231V3.54H129.97V25.231h69.869Zm156.087,3.27a58.572,58.572,0,0,0,27.141-6.158,45.7,45.7,0,0,0,18.693-17.277,48.213,48.213,0,0,0,6.7-25.4,49.534,49.534,0,0,0-4.905-21.963,42.857,42.857,0,0,0-14.279-16.623,39.611,39.611,0,0,0,11.281-14.279,42.78,42.78,0,0,0,3.761-18.094q0-13.187-6.159-23.108A40.609,40.609,0,0,0,325.9,5.611a61.891,61.891,0,0,0-50.3,0,40.527,40.527,0,0,0-17.168,15.26q-6.159,9.92-6.158,23.108a41.6,41.6,0,0,0,3.869,17.931,42.672,42.672,0,0,0,11.173,14.443,42.88,42.88,0,0,0-14.17,16.677,50.1,50.1,0,0,0-4.8,21.909,48.212,48.212,0,0,0,6.7,25.4,45.865,45.865,0,0,0,18.585,17.277q11.879,6.156,27.141,6.158h0Zm-28.34-48.832q0-13.08,7.684-20.219t20.656-7.14q12.97,0,20.655,7.14t7.685,20.219q0,12.972-7.685,20.056t-20.655,7.085q-12.974,0-20.656-7.03t-7.684-20.111h0Zm4.033-70.959q0-10.791,6.594-16.4t17.713-5.614q11.118,0,17.658,5.614t6.54,16.4q0,10.684-6.54,16.241t-17.658,5.559q-11.118,0-17.713-5.559t-6.594-16.241h0ZM389.822,160.5h24.634L469.5,25.231V3.54H375.107V25.231h69.869Zm102.244-59.623h65.4V82.565h-65.4v18.312ZM636.818,0.379a54.158,54.158,0,0,0-46.543,26.16,50.291,50.291,0,0,0-7.3,26.487A52.81,52.81,0,0,0,589.566,79.3a48.458,48.458,0,0,0,18.2,18.53,50.711,50.711,0,0,0,26,6.758,46.733,46.733,0,0,0,18.366-3.706,48.009,48.009,0,0,0,15.424-10.355V109.27a33.187,33.187,0,0,1-16.023,28.34,32.05,32.05,0,0,1-17,4.578,31.175,31.175,0,0,1-14.225-3.379,32.825,32.825,0,0,1-11.281-9.265l-16.677,15.587a52.533,52.533,0,0,0,18.8,13.9,57.734,57.734,0,0,0,23.381,4.741q16.457,0,29.266-7.194a50.275,50.275,0,0,0,19.893-20.219q7.083-13.024,7.085-30.03V56.3a57.676,57.676,0,0,0-7.14-28.667A52.659,52.659,0,0,0,636.818.379h0ZM606.08,53.026A29.819,29.819,0,0,1,610.222,37.6,31.065,31.065,0,0,1,621.394,26.43a30.787,30.787,0,0,1,30.847,0,30.963,30.963,0,0,1,11.173,11.227,30.686,30.686,0,0,1,0,30.793,30.955,30.955,0,0,1-11.227,11.173,30.89,30.89,0,0,1-30.9,0A30.635,30.635,0,0,1,610.167,68.45a30.135,30.135,0,0,1-4.087-15.423h0Z"/>
</svg>
