<svg xmlns="http://www.w3.org/2000/svg" width="788" height="165" viewBox="0 0 788 165">
  <defs>
    <style>
      .cls-1 {
        fill: #fff;
        fill-rule: evenodd;
      }
    </style>
  </defs>
  <path id="B787-10" class="cls-1" d="M0.26,160.5H67.84q14.715,0,25.288-5.613a38.212,38.212,0,0,0,16.132-15.969q5.559-10.355,5.559-24.2a40.8,40.8,0,0,0-6.268-22.454A38.248,38.248,0,0,0,90.73,77.551a31.947,31.947,0,0,0,12.263-12.862,39.713,39.713,0,0,0,4.414-18.966,42.667,42.667,0,0,0-5.232-20.655A39.776,39.776,0,0,0,86.643,9.481q-10.3-5.94-24.688-5.94H0.26V160.5Zm23.108-21.691v-49.7h42.4a27.367,27.367,0,0,1,13.516,3.27,22.6,22.6,0,0,1,9.047,9.047,26.358,26.358,0,0,1,3.161,12.862,23.823,23.823,0,0,1-3.488,13.026,23.132,23.132,0,0,1-9.646,8.5,31.6,31.6,0,0,1-14.007,3H23.368Zm0-71.177V25.013H61.627A25.112,25.112,0,0,1,73.4,27.684,19.247,19.247,0,0,1,81.3,35.1a21.044,21.044,0,0,1,2.779,10.846A22.029,22.029,0,0,1,81.138,57.5a19.638,19.638,0,0,1-8.066,7.521,24.805,24.805,0,0,1-11.445,2.616H23.368ZM144.685,160.5h24.634L224.364,25.231V3.54H129.97V25.231h69.869Zm156.087,3.27a58.572,58.572,0,0,0,27.141-6.158,45.7,45.7,0,0,0,18.693-17.277,48.213,48.213,0,0,0,6.7-25.4,49.534,49.534,0,0,0-4.905-21.963,42.857,42.857,0,0,0-14.279-16.623,39.611,39.611,0,0,0,11.281-14.279,42.78,42.78,0,0,0,3.761-18.094q0-13.187-6.159-23.108A40.609,40.609,0,0,0,325.9,5.611a61.891,61.891,0,0,0-50.3,0,40.527,40.527,0,0,0-17.168,15.26q-6.159,9.92-6.158,23.108a41.6,41.6,0,0,0,3.869,17.931,42.672,42.672,0,0,0,11.173,14.443,42.88,42.88,0,0,0-14.17,16.677,50.1,50.1,0,0,0-4.8,21.909,48.212,48.212,0,0,0,6.7,25.4,45.865,45.865,0,0,0,18.585,17.277q11.879,6.156,27.141,6.158h0Zm-28.34-48.832q0-13.08,7.684-20.219t20.656-7.14q12.97,0,20.655,7.14t7.685,20.219q0,12.972-7.685,20.056t-20.655,7.085q-12.974,0-20.656-7.03t-7.684-20.111h0Zm4.033-70.959q0-10.791,6.594-16.4t17.713-5.614q11.118,0,17.658,5.614t6.54,16.4q0,10.684-6.54,16.241t-17.658,5.559q-11.118,0-17.713-5.559t-6.594-16.241h0ZM389.822,160.5h24.634L469.5,25.231V3.54H375.107V25.231h69.869Zm102.244-59.623h65.4V82.565h-65.4v18.312Zm121.1,59.623h23.217V3.54H613.165L583.626,21.2V46.6L613.165,28.61V160.5Zm119.354,3.27a56.331,56.331,0,0,0,28.231-7.03,50.575,50.575,0,0,0,19.457-19.457,56.328,56.328,0,0,0,7.03-28.231V54.988a56.332,56.332,0,0,0-7.03-28.231A50.567,50.567,0,0,0,760.75,7.3a60.2,60.2,0,0,0-56.462,0,50.557,50.557,0,0,0-19.456,19.456A56.322,56.322,0,0,0,677.8,54.988v54.064a56.318,56.318,0,0,0,7.031,28.231,50.565,50.565,0,0,0,19.456,19.457,56.328,56.328,0,0,0,28.231,7.03h0Zm-31.5-53.3V53.353a31.3,31.3,0,0,1,31.5-31.392,31.225,31.225,0,0,1,31.5,31.392v57.116a31.5,31.5,0,1,1-63,0h0Z"/>
</svg>
