<svg xmlns="http://www.w3.org/2000/svg" width="652" height="161" viewBox="0 0 652 161">
  <defs>
    <style>
      .cls-1 {
        fill: #171f2c;
        fill-rule: evenodd;
      }
    </style>
  </defs>
  <path id="A21NX" class="cls-1" d="M0.36,160.5H24.013l11.445-35.425H99.877L111.54,160.5h23.653L84.181,3.54H51.372Zm42.074-56.789L67.5,26.321l25.4,77.39H42.434Zm108.017,56.68H256.617V138.7H185.658l45.453-40.548a152.4,152.4,0,0,0,14.77-14.606,44.545,44.545,0,0,0,8.011-13.68,52.452,52.452,0,0,0,2.725-17.931A52,52,0,0,0,249.805,25.5a48.98,48.98,0,0,0-18.694-18.53A52.958,52.958,0,0,0,204.624.27a58.1,58.1,0,0,0-27.686,6.486A47.677,47.677,0,0,0,157.863,24.85,51.346,51.346,0,0,0,151,51.5h23.326a28.37,28.37,0,0,1,3.761-14.66,29.018,29.018,0,0,1,10.736-10.846,29.791,29.791,0,0,1,15.369-4.033,29.153,29.153,0,0,1,14.933,3.87,27.13,27.13,0,0,1,10.355,10.682,31.084,31.084,0,0,1,3.706,15.1,30.748,30.748,0,0,1-3.215,13.734q-3.216,6.54-11.064,13.516L150.56,140.117ZM310.134,160.5h23.217V3.54H310.134L280.6,21.2V46.6L310.134,28.61V160.5Zm64.637,0h23.108V43.761L475.16,160.5h23.108V3.54H475.16V120.17L397.879,3.54H374.771V160.5Zm140.936,0H543.72l39.567-60.059L622.745,160.5h27.9l-53.41-79.461,52.1-77.5H621.328L583.287,61.746,545.028,3.54h-27.9l52.1,77.5Z"/>
</svg>
