<svg xmlns="http://www.w3.org/2000/svg" width="662" height="165" viewBox="0 0 662 165">
  <defs>
    <style>
      .cls-1 {
        fill: #fafafa;
        fill-rule: evenodd;
      }
    </style>
  </defs>
  <path id="A332X" class="cls-1" d="M0.36,160.5H24.013l11.445-35.425H99.877L111.54,160.5h23.653L84.181,3.54H51.372Zm42.074-56.789L67.5,26.321l25.4,77.39H42.434Zm156.3,59.732a53.362,53.362,0,0,0,26.487-6.7,50.064,50.064,0,0,0,18.966-18.476,50.97,50.97,0,0,0,6.976-26.487,54.11,54.11,0,0,0-5.014-23.38,45.048,45.048,0,0,0-14.333-17.44,46.462,46.462,0,0,0-21.746-8.448l38.8-37.278V3.54H154.484V25.231h66.49l-47.96,42.4L183.7,85.617a31.005,31.005,0,0,1,14.824-3.924,29.792,29.792,0,0,1,15.26,3.87A27.028,27.028,0,0,1,224.135,96.3a32.072,32.072,0,0,1,3.706,15.478,31.687,31.687,0,0,1-3.76,15.478,27.281,27.281,0,0,1-10.464,10.737,29.857,29.857,0,0,1-15.206,3.869,29.246,29.246,0,0,1-17.44-5.45,28.52,28.52,0,0,1-10.682-15.369l-22.018,6.1a48.971,48.971,0,0,0,10.737,19.239,50.62,50.62,0,0,0,17.767,12.644,55.176,55.176,0,0,0,21.963,4.414h0Zm124.7,0a53.367,53.367,0,0,0,26.487-6.7,50.078,50.078,0,0,0,18.966-18.476,50.979,50.979,0,0,0,6.976-26.487,54.125,54.125,0,0,0-5.014-23.38,45.059,45.059,0,0,0-14.334-17.44,46.459,46.459,0,0,0-21.745-8.448l38.8-37.278V3.54H279.179V25.231h66.49l-47.96,42.4,10.682,17.985a31,31,0,0,1,14.824-3.924,29.8,29.8,0,0,1,15.26,3.87A27.032,27.032,0,0,1,348.829,96.3a32.072,32.072,0,0,1,3.707,15.478,31.688,31.688,0,0,1-3.761,15.478,27.281,27.281,0,0,1-10.464,10.737,29.854,29.854,0,0,1-15.206,3.869,29.248,29.248,0,0,1-17.44-5.45,28.513,28.513,0,0,1-10.681-15.369l-22.018,6.1A48.969,48.969,0,0,0,283.7,146.385a50.62,50.62,0,0,0,17.767,12.644,55.177,55.177,0,0,0,21.964,4.414h0Zm76.407-3.052H506.006V138.7H435.047L480.5,98.152a152.374,152.374,0,0,0,14.769-14.606,44.568,44.568,0,0,0,8.012-13.68,52.477,52.477,0,0,0,2.725-17.931A52.006,52.006,0,0,0,499.193,25.5,48.985,48.985,0,0,0,480.5,6.974,52.964,52.964,0,0,0,454.013.27a58.1,58.1,0,0,0-27.686,6.486A47.67,47.67,0,0,0,407.252,24.85,51.346,51.346,0,0,0,400.385,51.5h23.326a28.359,28.359,0,0,1,3.76-14.66,29.021,29.021,0,0,1,10.737-10.846,29.791,29.791,0,0,1,15.369-4.033,29.158,29.158,0,0,1,14.933,3.87,27.144,27.144,0,0,1,10.355,10.682,31.1,31.1,0,0,1,3.706,15.1,30.749,30.749,0,0,1-3.216,13.734q-3.216,6.54-11.063,13.516l-68.343,61.258ZM519.083,160.5H547.1l39.567-60.059L626.121,160.5h27.9l-53.41-79.461,52.1-77.5H624.7L586.663,61.746,548.4,3.54H520.5l52.1,77.5Z"/>
</svg>
