<svg xmlns="http://www.w3.org/2000/svg" width="662" height="165" viewBox="0 0 662 165">
  <defs>
    <style>
      .cls-1 {
        fill: #fafafa;
        fill-rule: evenodd;
      }
    </style>
  </defs>
  <path id="A338X" class="cls-1" d="M0.36,160.5H24.013l11.445-35.425H99.877L111.54,160.5h23.653L84.181,3.54H51.372Zm42.074-56.789L67.5,26.321l25.4,77.39H42.434Zm156.3,59.732a53.362,53.362,0,0,0,26.487-6.7,50.064,50.064,0,0,0,18.966-18.476,50.97,50.97,0,0,0,6.976-26.487,54.11,54.11,0,0,0-5.014-23.38,45.048,45.048,0,0,0-14.333-17.44,46.462,46.462,0,0,0-21.746-8.448l38.8-37.278V3.54H154.484V25.231h66.49l-47.96,42.4L183.7,85.617a31.005,31.005,0,0,1,14.824-3.924,29.792,29.792,0,0,1,15.26,3.87A27.028,27.028,0,0,1,224.135,96.3a32.072,32.072,0,0,1,3.706,15.478,31.687,31.687,0,0,1-3.76,15.478,27.281,27.281,0,0,1-10.464,10.737,29.857,29.857,0,0,1-15.206,3.869,29.246,29.246,0,0,1-17.44-5.45,28.52,28.52,0,0,1-10.682-15.369l-22.018,6.1a48.971,48.971,0,0,0,10.737,19.239,50.62,50.62,0,0,0,17.767,12.644,55.176,55.176,0,0,0,21.963,4.414h0Zm124.7,0a53.367,53.367,0,0,0,26.487-6.7,50.078,50.078,0,0,0,18.966-18.476,50.979,50.979,0,0,0,6.976-26.487,54.125,54.125,0,0,0-5.014-23.38,45.059,45.059,0,0,0-14.334-17.44,46.459,46.459,0,0,0-21.745-8.448l38.8-37.278V3.54H279.179V25.231h66.49l-47.96,42.4,10.682,17.985a31,31,0,0,1,14.824-3.924,29.8,29.8,0,0,1,15.26,3.87A27.032,27.032,0,0,1,348.829,96.3a32.072,32.072,0,0,1,3.707,15.478,31.688,31.688,0,0,1-3.761,15.478,27.281,27.281,0,0,1-10.464,10.737,29.854,29.854,0,0,1-15.206,3.869,29.248,29.248,0,0,1-17.44-5.45,28.513,28.513,0,0,1-10.681-15.369l-22.018,6.1A48.969,48.969,0,0,0,283.7,146.385a50.62,50.62,0,0,0,17.767,12.644,55.177,55.177,0,0,0,21.964,4.414h0Zm131.016,0.327a58.572,58.572,0,0,0,27.141-6.158,45.709,45.709,0,0,0,18.693-17.277,48.213,48.213,0,0,0,6.7-25.4,49.534,49.534,0,0,0-4.905-21.963A42.866,42.866,0,0,0,487.8,76.352a39.611,39.611,0,0,0,11.281-14.279,42.78,42.78,0,0,0,3.761-18.094q0-13.187-6.159-23.108a40.609,40.609,0,0,0-17.113-15.26,61.891,61.891,0,0,0-50.3,0A40.527,40.527,0,0,0,412.1,20.871q-6.159,9.92-6.158,23.108a41.6,41.6,0,0,0,3.869,17.931,42.659,42.659,0,0,0,11.173,14.443,42.871,42.871,0,0,0-14.17,16.677,50.1,50.1,0,0,0-4.8,21.909,48.212,48.212,0,0,0,6.7,25.4,45.859,45.859,0,0,0,18.585,17.277q11.878,6.156,27.141,6.158h0Zm-28.34-48.832q0-13.08,7.684-20.219t20.656-7.14q12.969,0,20.655,7.14t7.685,20.219q0,12.972-7.685,20.056t-20.655,7.085q-12.974,0-20.656-7.03t-7.684-20.111h0Zm4.033-70.959q0-10.791,6.594-16.4t17.713-5.614q11.118,0,17.658,5.614t6.54,16.4q0,10.684-6.54,16.241t-17.658,5.559q-11.118,0-17.713-5.559t-6.594-16.241h0Zm92.1,116.521h28.013l39.567-60.059L629.282,160.5h27.9l-53.41-79.461,52.1-77.5H627.865L589.824,61.746,551.565,3.54h-27.9l52.1,77.5Z"/>
</svg>
