<svg xmlns="http://www.w3.org/2000/svg" width="662" height="165" viewBox="0 0 662 165">
  <defs>
    <style>
      .cls-1 {
        fill: #171f2c;
        fill-rule: evenodd;
      }
    </style>
  </defs>
  <path id="A339X" class="cls-1" d="M0.36,160.5H24.013l11.445-35.425H99.877L111.54,160.5h23.653L84.181,3.54H51.372Zm42.074-56.789L67.5,26.321l25.4,77.39H42.434Zm156.3,59.732a53.362,53.362,0,0,0,26.487-6.7,50.064,50.064,0,0,0,18.966-18.476,50.97,50.97,0,0,0,6.976-26.487,54.11,54.11,0,0,0-5.014-23.38,45.048,45.048,0,0,0-14.333-17.44,46.462,46.462,0,0,0-21.746-8.448l38.8-37.278V3.54H154.484V25.231h66.49l-47.96,42.4L183.7,85.617a31.005,31.005,0,0,1,14.824-3.924,29.792,29.792,0,0,1,15.26,3.87A27.028,27.028,0,0,1,224.135,96.3a32.072,32.072,0,0,1,3.706,15.478,31.687,31.687,0,0,1-3.76,15.478,27.281,27.281,0,0,1-10.464,10.737,29.857,29.857,0,0,1-15.206,3.869,29.246,29.246,0,0,1-17.44-5.45,28.52,28.52,0,0,1-10.682-15.369l-22.018,6.1a48.971,48.971,0,0,0,10.737,19.239,50.62,50.62,0,0,0,17.767,12.644,55.176,55.176,0,0,0,21.963,4.414h0Zm124.7,0a53.367,53.367,0,0,0,26.487-6.7,50.078,50.078,0,0,0,18.966-18.476,50.979,50.979,0,0,0,6.976-26.487,54.125,54.125,0,0,0-5.014-23.38,45.059,45.059,0,0,0-14.334-17.44,46.459,46.459,0,0,0-21.745-8.448l38.8-37.278V3.54H279.179V25.231h66.49l-47.96,42.4,10.682,17.985a31,31,0,0,1,14.824-3.924,29.8,29.8,0,0,1,15.26,3.87A27.032,27.032,0,0,1,348.829,96.3a32.072,32.072,0,0,1,3.707,15.478,31.688,31.688,0,0,1-3.761,15.478,27.281,27.281,0,0,1-10.464,10.737,29.854,29.854,0,0,1-15.206,3.869,29.248,29.248,0,0,1-17.44-5.45,28.513,28.513,0,0,1-10.681-15.369l-22.018,6.1A48.969,48.969,0,0,0,283.7,146.385a50.62,50.62,0,0,0,17.767,12.644,55.177,55.177,0,0,0,21.964,4.414h0ZM455.212,0.379a54.158,54.158,0,0,0-46.543,26.16,50.291,50.291,0,0,0-7.3,26.487A52.81,52.81,0,0,0,407.96,79.3a48.458,48.458,0,0,0,18.2,18.53,50.711,50.711,0,0,0,26,6.758,46.733,46.733,0,0,0,18.366-3.706A48.009,48.009,0,0,0,485.95,90.522V109.27a33.187,33.187,0,0,1-16.023,28.34,32.05,32.05,0,0,1-17,4.578,31.175,31.175,0,0,1-14.225-3.379,32.825,32.825,0,0,1-11.281-9.265L410.74,145.131a52.533,52.533,0,0,0,18.8,13.9,57.734,57.734,0,0,0,23.381,4.741q16.457,0,29.266-7.194a50.275,50.275,0,0,0,19.893-20.219q7.083-13.024,7.085-30.03V56.3a57.676,57.676,0,0,0-7.14-28.667A52.659,52.659,0,0,0,455.212.379h0ZM424.474,53.026A29.819,29.819,0,0,1,428.616,37.6,31.065,31.065,0,0,1,439.788,26.43a30.787,30.787,0,0,1,30.847,0,30.963,30.963,0,0,1,11.173,11.227,30.686,30.686,0,0,1,0,30.793,30.955,30.955,0,0,1-11.227,11.173,30.89,30.89,0,0,1-30.9,0A30.635,30.635,0,0,1,428.561,68.45a30.135,30.135,0,0,1-4.087-15.423h0ZM526.6,160.5h28.013l39.567-60.059L633.642,160.5h27.9l-53.41-79.461,52.1-77.5H632.225L594.184,61.746,555.925,3.54h-27.9l52.1,77.5Z"/>
</svg>
