<svg xmlns="http://www.w3.org/2000/svg" width="924" height="165" viewBox="0 0 924 165">
  <defs>
    <style>
      .cls-1 {
        fill: #171f2c;
        fill-rule: evenodd;
      }
    </style>
  </defs>
  <path id="ACJ339X" class="cls-1" d="M922.93,160.5h-27.9l-39.458-60.059L816,160.5H787.988l53.519-79.461-52.1-77.5h27.9l38.259,58.206L893.609,3.54h28.013l-52.1,77.5Zm-179.358-3.924q-12.7,7.194-29.266,7.194a58.422,58.422,0,0,1-23.326-4.687,52.279,52.279,0,0,1-18.966-13.952L688.8,129.544a33.236,33.236,0,0,0,11.227,9.265,30.7,30.7,0,0,0,14.279,3.488,31.605,31.605,0,0,0,17.167-4.687,33.272,33.272,0,0,0,15.751-28.34V90.7a49.177,49.177,0,0,1-12.208,8.763,46.531,46.531,0,0,1-21.473,5.123,50.464,50.464,0,0,1-26.16-6.758A49.437,49.437,0,0,1,669.289,79.4a52.292,52.292,0,0,1-6.649-26.378,49.208,49.208,0,0,1,7.412-26.6,55.748,55.748,0,0,1,19.62-18.966,54.977,54.977,0,0,1,54.282.163,53.422,53.422,0,0,1,19.4,19.893q7.194,12.646,7.194,28.885v49.922q0,17.223-7.14,30.138A51.027,51.027,0,0,1,743.572,156.576ZM743.136,37.657a30.934,30.934,0,0,0-11.063-11.118A29.755,29.755,0,0,0,716.6,22.4a30.345,30.345,0,0,0-15.533,4.088A30.769,30.769,0,0,0,689.89,37.548a29.732,29.732,0,0,0-4.142,15.478,30.019,30.019,0,0,0,4.142,15.532,31.179,31.179,0,0,0,11.118,11.173,30.99,30.99,0,0,0,30.956,0,31.227,31.227,0,0,0,11.118-11.172,30.048,30.048,0,0,0,4.142-15.532A29.85,29.85,0,0,0,743.136,37.657ZM614.464,68.668A45.07,45.07,0,0,1,631.3,86.544a53.323,53.323,0,0,1,5.941,25.234,50.283,50.283,0,0,1-25.888,45.017,53.219,53.219,0,0,1-26.541,6.649,54.779,54.779,0,0,1-21.909-4.414,51.07,51.07,0,0,1-17.713-12.59,49.525,49.525,0,0,1-10.845-19.293l22.018-6.1a28.394,28.394,0,0,0,11.009,15.533,30.975,30.975,0,0,0,32.591,1.253A27.955,27.955,0,0,0,610.213,127.2a31.369,31.369,0,0,0,3.706-15.424q0-13.08-8.121-21.582t-21.2-8.5a27.9,27.9,0,0,0-7.576,1.09,38.6,38.6,0,0,0-7.248,2.834L559.092,67.632l47.972-42.4h-66.5V3.54h94.394V25.231L596.193,62.524A45.792,45.792,0,0,1,614.464,68.668Zm-124.694,0a45.07,45.07,0,0,1,16.84,17.876,53.323,53.323,0,0,1,5.941,25.234,50.283,50.283,0,0,1-25.888,45.017,53.219,53.219,0,0,1-26.541,6.649,54.779,54.779,0,0,1-21.909-4.414,51.07,51.07,0,0,1-17.713-12.59,49.525,49.525,0,0,1-10.845-19.293l22.018-6.1a28.394,28.394,0,0,0,11.009,15.533,30.975,30.975,0,0,0,32.591,1.253A27.955,27.955,0,0,0,485.519,127.2a31.369,31.369,0,0,0,3.706-15.424q0-13.08-8.121-21.582t-21.2-8.5a27.9,27.9,0,0,0-7.576,1.09,38.6,38.6,0,0,0-7.248,2.834L434.4,67.632l47.972-42.4h-66.5V3.54h94.394V25.231L471.5,62.524A45.792,45.792,0,0,1,489.77,68.668ZM382.242,132.923a34.774,34.774,0,0,1-3.978,9.919,38.408,38.408,0,0,1-16.35,15.8,49.714,49.714,0,0,1-22.345,5.014q-17.224,0-28.94-9.156t-16.186-24.634l22.563-5.341a22.92,22.92,0,0,0,21.8,17.658,25.067,25.067,0,0,0,10.682-2.616,16.88,16.88,0,0,0,8.284-8.5,24.608,24.608,0,0,0,2.18-8.993q0.327-5.067.327-11.826V3.54h23.108V110.251q0,6.976-.055,12.426A50.973,50.973,0,0,1,382.242,132.923Zm-194.129,1.635q11.172,7.521,27.85,7.521,18.639,0,30.356-9.428t16.3-25.779l23.108,6.213q-6.977,23.217-24.8,36.951T215.963,163.77q-23.544,0-40.112-10.3a66.78,66.78,0,0,1-25.343-28.722q-8.775-18.42-8.774-42.728t8.774-42.728a66.787,66.787,0,0,1,25.343-28.722Q192.419,0.27,215.963.27,243.1,0.27,260.925,14t24.8,36.951l-23.108,6.213q-4.578-16.457-16.3-25.833t-30.356-9.374q-16.677,0-27.795,7.521a45.919,45.919,0,0,0-16.732,21.037q-5.614,13.517-5.613,31.5-0.109,17.985,5.5,31.5A45.778,45.778,0,0,0,188.113,134.558ZM99.92,125.075H35.5L24.013,160.5H0.36L51.372,3.54H84.181L135.193,160.5H111.54ZM67.521,26.3l-25.1,77.412H92.913Z"/>
</svg>
