<svg xmlns="http://www.w3.org/2000/svg" width="1839" height="223" viewBox="0 0 1839 223">
  <defs>
    <style>
      .cls-1 {
        fill: #171f2c;
        fill-rule: evenodd;
      }
    </style>
  </defs>
  <path id="Cockpit_Textures" data-name="Cockpit Textures" class="cls-1" d="M124.07,113.228a50.827,50.827,0,0,1-8.4,16.8c-9.084,12.262-22.708,18.62-38.377,18.393-15.9-.227-30.656-5.9-39.739-18.393-9.764-12.717-12.262-28.386-12.489-44.281,0-15.9,2.952-32.245,12.489-44.281,9.083-12.262,24.3-18.394,39.739-18.167,15.9,0.227,29.066,5.677,38.377,18.167a51.892,51.892,0,0,1,9.083,18.848l23.843-3.406c-3.179-14.079-9.31-27.023-21.572-37.923C113.851,6.045,96.139.6,75.928,0.6c-23.162,0-43.6,8.629-57.679,26.114C4.852,43.287.31,63.951,0.083,85.751c-0.227,20.664,5.223,41.783,18.394,58.814,13.4,17.485,33.835,26.341,57.452,26.341,19.756,0,37.7-5.223,51.321-18.166,11.127-9.992,16.8-21.346,20.21-33.608Zm101.053,57.678c18.166,0,34.516-6.585,45.643-20.21,10.446-12.944,14.533-27.7,14.533-44.508,0-16.123-3.86-31.564-14.533-44.508-10.9-13.625-27.7-20.21-45.643-20.21-17.713,0-34.744,7.039-45.644,20.21-9.764,12.262-14.306,27.931-14.306,44.508,0,16.35,4.088,31.564,14.306,44.508C190.606,164.094,207.41,170.906,225.123,170.906Zm34.97-64.718c0,10.9-2.043,21.8-8.175,29.975-5.9,8.175-16.122,12.262-26.8,12.262s-20.665-4.087-26.569-12.262c-6.131-8.175-8.175-19.075-8.175-29.975s2.044-22.027,8.175-30.2c5.9-8.175,15.9-12.035,26.569-12.035s20.891,3.86,26.8,12.035C258.05,84.161,260.093,95.288,260.093,106.188Zm156.232-27.25A48.336,48.336,0,0,0,394.3,49.418c-9.764-5.9-18.848-7.948-31.337-7.948-19.3,0-33.835,6.585-45.189,20.21-10.219,12.49-14.306,27.931-14.306,44.508,0,16.35,4.087,31.564,14.306,44.735,10.673,13.625,25.66,19.983,44.962,19.983,14.079,0,23.616-2.5,33.835-9.764,9.083-6.359,16.123-16.577,19.756-27.25l-24.3-5.9c-2.27,6.131-5.222,10.9-10.445,14.987s-12.263,5.45-18.848,5.45c-10.673,0-19.983-4.087-25.887-12.262-6.132-8.175-8.175-19.075-8.175-29.975s2.043-22.027,8.175-30.2c5.9-8.175,15.214-12.035,25.887-12.035a30.964,30.964,0,0,1,18.394,5.677c5.449,3.86,9.31,9.992,11.581,15.9Zm47.233,36.106H477.41L516.922,167.5H544.4l-47.46-63.81,42.918-58.814h-27.25l-35.2,47.687H463.558V4H439.487L439.26,167.5h24.3V115.044ZM662.708,61C652.49,48.282,636.594,41.47,619.79,41.47c-14.76,0-28.612,5.45-38.377,14.987V44.876H560.295V222h23.843V158.417c9.538,8.4,22.254,12.489,36.106,12.489,16.577,0,32.246-7.039,42.464-19.756s13.852-28.612,13.852-44.962C676.56,89.611,672.473,73.488,662.708,61Zm-19.074,75.618c-6.131,8.856-16.35,12.716-26.569,12.716-10.673,0-19.983-3.633-26.341-11.126-6.586-7.948-9.311-19.984-9.311-32.019,0-12.262,2.725-24.071,9.311-32.018,5.9-7.721,15.214-11.127,25.433-11.127,11.354,0,21.118,3.633,27.25,12.49,5.677,7.721,7.947,18.848,7.947,30.656C651.354,117.769,649.311,128.9,643.634,136.617ZM703.812,2.412V25.574h23.844V2.412H703.812Zm0,42.464V167.5h23.844V44.876H703.812Zm91.512,19.075h36.56V44.876h-36.56V10.814H771.708V44.876H748.091V63.951h23.617v55.408c0,13.4-1.136,24.3,4.768,33.608,5.677,9.764,13.171,13.625,24.3,15.441,8.4,1.363,22.254,1.363,31.11-.908V147.29a75.538,75.538,0,0,1-20.21.908c-5.45-.454-10.9-2.952-13.852-8.175-2.952-4.769-2.5-12.035-2.5-22.027V63.951ZM1021.72,4H889.334V26.483h54.272V167.5H967.45V26.483h54.27V4Zm18.63,108.772h91.51c1.14-19.983-2.04-38.149-13.4-52-11.13-13.171-25.66-19.3-43.6-19.3-17.71,0-34.51,6.812-45.64,20.21-9.77,12.262-14.31,28.612-14.31,45.643,0,15.442,4.32,30.884,14.31,43.373,10.9,13.171,28.84,20.21,47,20.21a62.349,62.349,0,0,0,32.25-9.083,55.239,55.239,0,0,0,21.57-25.433l-23.16-7.494a33.941,33.941,0,0,1-11.35,13.625c-5.68,4.088-12.49,5.9-20.67,5.9-10.67,0-20.66-4.087-26.57-12.262C1043.3,129.577,1041.03,121.4,1040.35,112.773Zm34.51-50.185c10.22-.227,20.21,3.633,26.12,11.354,4.31,5.677,5.9,12.262,6.58,19.756H1040.8c1.14-7.04,3.18-13.4,7.49-19.075C1055.11,65.768,1065.1,62.361,1074.86,62.588Zm183.71-17.712h-29.06l-30.2,42.01-30.43-42.01h-29.07l44.96,60.631L1138.9,167.5h29.07l31.34-43.373,31.33,43.373h29.07l-46.1-61.993Zm52.91,19.075h36.56V44.876h-36.56V10.814h-23.61V44.876h-23.62V63.951h23.62v55.408c0,13.4-1.14,24.3,4.77,33.608,5.67,9.764,13.17,13.625,24.29,15.441,8.41,1.363,22.26,1.363,31.11-.908V147.29a75.52,75.52,0,0,1-20.21.908c-5.45-.454-10.9-2.952-13.85-8.175-2.95-4.769-2.5-12.035-2.5-22.027V63.951Zm146.24-19.075V98.694c0,8.857,0,18.167-1.59,24.979-1.36,7.494-4.76,14.079-9.99,18.167-4.99,4.087-11.12,6.131-17.94,6.585-8.63.227-16.12-2.044-21.34-6.812-9.54-8.175-11.36-22.481-11.36-38.15V44.876h-24.07v59.495c-0.22,20.438,1.14,41.783,16.13,54.954,11.12,9.765,24.75,12.262,37.92,11.354,11.12-.681,23.16-4.769,31.11-13.625l3.86-4.541V167.5h21.12V44.876h-23.85ZM1571.27,41.7a44.437,44.437,0,0,0-25.21,8.175,40.665,40.665,0,0,0-11.58,12.717V44.876h-21.12V167.5h23.84V105.734c0-13.625,1.37-24.752,9.99-32.927,5-5.223,12.72-8.4,22.03-8.856a52.541,52.541,0,0,1,20.44,2.725V44.422A42.743,42.743,0,0,0,1571.27,41.7Zm54.04,71.076h91.52c1.13-19.983-2.05-38.149-13.4-52-11.13-13.171-25.66-19.3-43.6-19.3-17.71,0-34.52,6.812-45.64,20.21-9.77,12.262-14.31,28.612-14.31,45.643,0,15.442,4.31,30.884,14.31,43.373,10.9,13.171,28.84,20.21,47,20.21a62.349,62.349,0,0,0,32.25-9.083,55.239,55.239,0,0,0,21.57-25.433l-23.16-7.494a33.969,33.969,0,0,1-11.36,13.625c-5.67,4.088-12.49,5.9-20.66,5.9-10.67,0-20.67-4.087-26.57-12.262C1628.26,129.577,1625.99,121.4,1625.31,112.773Zm34.52-50.185c10.22-.227,20.21,3.633,26.11,11.354,4.32,5.677,5.91,12.262,6.59,19.756h-66.76c1.13-7.04,3.18-13.4,7.49-19.075C1640.07,65.768,1650.06,62.361,1659.83,62.588Zm178.49,14.533c-4.09-12.262-13.86-23.843-25.66-29.52a56.3,56.3,0,0,0-25.89-6.131c-8.63,0-17.49.681-26.57,4.542-12.03,5.223-21.12,16.8-21.12,30.883,0,5.9,2.05,14.533,7.27,20.21,5.68,5.9,13.85,9.537,21.12,12.262,5.9,2.044,10.9,3.406,28.38,8.4,10.9,3.179,21.35,6.131,21.35,15.9,0,4.769-2.27,8.4-6.36,11.354-4.77,3.406-14.31,5-20.89,5-9.09,0-18.17-2.5-24.53-8.856-4.08-3.861-6.81-9.538-8.63-15.215l-21.57,6.131a54.161,54.161,0,0,0,13.17,23.617c11.13,11.581,25.21,15.214,41.33,15.214,11.81,0,22.71-1.816,32.93-8.175A35.012,35.012,0,0,0,1839,133.665c0-19.756-15.67-31.791-37.47-37.7-9.77-2.725-17.03-4.769-23.84-6.812-10-2.725-16.81-5.45-16.81-13.171,0-8.629,12.26-14.079,24.53-13.625,13.62,0.227,25.2,6.358,30.43,20.21Z"/>
</svg>
