<?xml version="1.0" encoding="UTF-8" standalone="no"?><!DOCTYPE svg PUBLIC "-//W3C//DTD SVG 1.1//EN" "http://www.w3.org/Graphics/SVG/1.1/DTD/svg11.dtd"><svg width="100%" height="100%" viewBox="0 0 1024 1024" version="1.1" xmlns="http://www.w3.org/2000/svg" xmlns:xlink="http://www.w3.org/1999/xlink" xml:space="preserve" xmlns:serif="http://www.serif.com/" style="fill-rule:evenodd;clip-rule:evenodd;stroke-linejoin:round;stroke-miterlimit:2;"><path d="M248.017,173.51l-12.36,-0c-2.89,-0 -5.236,-2.347 -5.236,-5.236l0,-10.472c0,-2.889 2.346,-5.236 5.236,-5.236l3.339,0l3.297,-39.357c-0,-1.969 1.598,-3.567 3.567,-3.567l32.547,-0c1.969,-0 3.567,1.598 3.567,3.567l3.297,39.357l3.339,0c2.89,0 5.236,2.347 5.236,5.236l-0,10.472c-0,2.889 -2.346,5.236 -5.236,5.236l-13.641,-0l-0,40.088l195.759,-39.461c-0,0 -8.603,6.108 -22.904,20.409c-14.302,14.302 -12.43,19.551 -12.43,19.551l-144.425,30.176l90.728,108.402c-0,0 -2.934,6.996 -2.079,21.416c1.213,20.474 6.017,27.056 6.017,27.056l-110.666,-129.932l-0,629.667c-0,7.438 -6.038,13.476 -13.476,13.476c-7.438,0 -13.476,-6.038 -13.476,-13.476l0,-727.372Zm516.523,292.988c0.78,-1.261 2.132,-2.057 3.614,-2.126c1.482,-0.069 2.902,0.597 3.797,1.78c6.788,8.971 19.834,26.221 19.834,26.221c0,-0 8.671,17.453 -12.117,34.086c-20.788,16.633 -36.62,4.91 -36.62,4.91c-0,0 -11.143,-5.853 -18.264,-9.593c-1.307,-0.688 -2.194,-1.972 -2.373,-3.438c-0.178,-1.466 0.374,-2.926 1.477,-3.907c8.808,-7.879 17.916,-16.938 25.513,-26.446c5.679,-7.108 10.721,-14.406 15.139,-21.487Zm-84.777,-111.115c0.637,-1.467 2.004,-2.486 3.592,-2.676c1.588,-0.19 3.157,0.478 4.122,1.753c12.563,16.608 46.672,61.707 54.716,72.343c1.052,1.39 1.207,3.262 0.397,4.806c-5.294,9.983 -12.376,21.392 -21.688,33.048c-8.967,11.225 -24.97,23.542 -37.786,32.492c-1.378,0.959 -3.176,1.071 -4.662,0.29c-10.25,-5.384 -50.311,-26.427 -64.882,-34.08c-1.254,-0.66 -2.124,-1.871 -2.348,-3.271c-0.225,-1.399 0.223,-2.822 1.209,-3.84c12.054,-12.558 25.669,-28.327 37.579,-46.011c12.57,-18.663 22.487,-38.34 29.751,-54.854Zm-108.634,-107.094c0.217,-1.632 1.31,-3.016 2.848,-3.605c1.539,-0.59 3.276,-0.292 4.529,0.777c16.789,14.319 62.028,52.905 72.519,61.853c1.338,1.14 1.89,2.953 1.414,4.645c-4.298,14.609 -14.291,40.248 -37.16,74.204c-16.347,24.27 -33.987,41.127 -47.055,51.661c-0.785,0.628 -1.866,0.733 -2.756,0.266l-44.148,-7.787c-1.386,-0.245 -2.578,-1.125 -3.22,-2.377c-0.642,-1.253 -0.661,-2.734 -0.052,-4.003c11.688,-24.514 26.106,-58.462 35.537,-93.658c9.339,-34.851 14.658,-61.613 17.544,-81.976Zm-107.68,165.656c-2.352,3.332 -6.417,5.005 -10.433,4.297c-6.066,-1.057 -14.951,-2.624 -20.579,-3.617c-3.693,-0.65 -6.951,-2.802 -8.999,-5.943c-7.253,-12.6 -21.342,-49.497 5.057,-123.554c41.805,-117.274 79.901,-99.469 79.901,-99.469c0,0 5.478,4.672 9.195,7.843c2.142,1.826 3.466,4.432 3.676,7.239c0.946,18.166 -1.02,53.594 -17.569,115.356c-13.801,51.507 -29.253,81.432 -40.249,97.848Z" style="fill:url(#_Linear1);"/><defs><linearGradient id="_Linear1" x1="0" y1="0" x2="1" y2="0" gradientUnits="userSpaceOnUse" gradientTransform="matrix(528.867,-751.202,751.202,528.867,230.421,914.358)"><stop offset="0" style="stop-color:#ff6757;stop-opacity:1"/><stop offset="1" style="stop-color:#ffdc66;stop-opacity:1"/></linearGradient></defs></svg>