<svg xmlns="http://www.w3.org/2000/svg" width="763" height="165" viewBox="0 0 763 165">
  <defs>
    <style>
      .cls-1 {
        fill: #fff;
        fill-rule: evenodd;
      }
    </style>
  </defs>
  <path id="Condor" class="cls-1" d="M750.294,63.272A29.233,29.233,0,0,0,728.6,76.461a36.271,36.271,0,0,0-4.632,11.391,59.852,59.852,0,0,0-1.417,13.243V160.5h-23V42.78h20.274V61.618a43.162,43.162,0,0,1,2.834-4.4,32.114,32.114,0,0,1,8.066-7.793,35.331,35.331,0,0,1,9.973-5.068,45.965,45.965,0,0,1,11.282-2.18,44.981,44.981,0,0,1,11.118.6V64.144A36.692,36.692,0,0,0,750.294,63.272Zm-101.969,92.6q-12.972,7.9-30.52,7.9-17.658,0-30.629-7.957a53.164,53.164,0,0,1-20-21.963q-7.03-14.005-7.031-32.319,0-18.419,7.194-32.428A53.179,53.179,0,0,1,587.5,47.3q12.97-7.792,30.3-7.794,17.658,0,30.629,7.957A53.639,53.639,0,0,1,668.49,69.376q7.084,13.954,7.085,32.155,0,18.421-7.139,32.427A53.55,53.55,0,0,1,648.325,155.868Zm-5.4-83.821Q634.481,60.985,617.8,60.983q-11.445,0-18.857,5.178A30.673,30.673,0,0,0,587.939,80.44a57.133,57.133,0,0,0-3.6,21.092q0,18.531,8.5,29.648T617.8,142.3q16.894,0,25.234-11.391t8.338-29.375Q651.377,83.112,642.93,72.047ZM515.892,149.669a48.584,48.584,0,0,1-6.758,5.872q-11.445,8.228-28.34,8.229-16.459,0-28.394-8.175a53.32,53.32,0,0,1-18.421-22.29q-6.486-14.115-6.486-31.774,0-17.765,6.54-31.774a53.178,53.178,0,0,1,18.585-22.127q12.042-8.119,28.612-8.12,16.677,0,28.068,8.121a47.738,47.738,0,0,1,3.978,3.171V3.54h22.89V160.5H515.892V149.669Zm-3.324-69.72a30.54,30.54,0,0,0-10.246-14.606q-6.924-5.232-17.6-5.232-11.337,0-18.639,5.559A32.858,32.858,0,0,0,455.234,80.6a58.816,58.816,0,0,0-3.543,20.928,59.582,59.582,0,0,0,3.543,21.092,33.33,33.33,0,0,0,10.682,14.987q7.137,5.559,18.039,5.559,11.226,0,18.312-5.341a30.4,30.4,0,0,0,10.355-14.715,65.408,65.408,0,0,0,3.27-21.582A64.447,64.447,0,0,0,512.568,79.949ZM384,102.621a90.47,90.47,0,0,0-1.144-14.115,44.059,44.059,0,0,0-4.36-13.461,26.177,26.177,0,0,0-9.047-10.028Q363.617,61.2,354.244,61.2a33.035,33.035,0,0,0-11.554,2.017,24.162,24.162,0,0,0-9.537,6.486,31.386,31.386,0,0,0-6.431,11.772,58.605,58.605,0,0,0-2.344,17.767V160.5H301.27V42.78h20.383V56.906a44.37,44.37,0,0,1,11.772-10.42q11.226-6.867,27.141-6.867,12.207,0,20.492,3.924a37.923,37.923,0,0,1,13.462,10.3,47.752,47.752,0,0,1,7.9,13.9,71.654,71.654,0,0,1,3.706,14.715,95,95,0,0,1,.981,12.644v65.4H384V102.621ZM250.15,155.868q-12.974,7.9-30.52,7.9-17.658,0-30.629-7.957a53.159,53.159,0,0,1-20-21.963q-7.03-14.005-7.03-32.319,0-18.419,7.194-32.428a53.172,53.172,0,0,1,20.165-21.8q12.97-7.792,30.3-7.794,17.658,0,30.629,7.957a53.646,53.646,0,0,1,20.056,21.909Q277.4,83.33,277.4,101.531q0,18.421-7.14,32.427A53.541,53.541,0,0,1,250.15,155.868Zm-5.4-83.821q-8.448-11.062-25.124-11.063-11.445,0-18.857,5.178A30.667,30.667,0,0,0,189.764,80.44a57.133,57.133,0,0,0-3.6,21.092q0,18.531,8.5,29.648T219.63,142.3q16.894,0,25.233-11.391t8.339-29.375Q253.2,83.112,244.754,72.047ZM46.92,134.558q11.172,7.521,27.85,7.521,18.639,0,30.356-9.428t16.3-25.779l23.108,6.213q-6.977,23.217-24.8,36.951T74.769,163.77q-23.544,0-40.112-10.3A66.779,66.779,0,0,1,9.315,124.748Q0.539,106.328.54,82.02T9.315,39.292A66.786,66.786,0,0,1,34.657,10.571Q51.224,0.27,74.769.27,101.91,0.27,119.731,14t24.8,36.951l-23.108,6.213q-4.578-16.457-16.3-25.833T74.769,21.961q-16.677,0-27.8,7.521A45.917,45.917,0,0,0,30.243,50.519q-5.615,13.517-5.613,31.5-0.11,17.985,5.5,31.5A45.774,45.774,0,0,0,46.92,134.558Z"/>
</svg>
