<svg xmlns="http://www.w3.org/2000/svg" width="1750" height="165" viewBox="0 0 1750 165">
  <defs>
    <style>
      .cls-1 {
        fill: #171f2c;
        fill-rule: evenodd;
      }
    </style>
  </defs>
  <path id="Sunclass_Airlines" data-name="Sunclass Airlines" class="cls-1" d="M1718.33,64.907q-6.765-4.9-17.55-5.341-10.365-.434-16.79,3.433t-6.43,10.627a9.6,9.6,0,0,0,2.45,6.649q2.46,2.726,9.54,5.232t20.93,6q14.82,3.817,23.54,8.448t12.48,11.008a29.831,29.831,0,0,1,3.76,15.424q0,17.441-12.69,27.359-12.705,9.92-35.05,9.919-21.465,0-34.99-9.483t-16.56-26.7l23.32-3.6a23.3,23.3,0,0,0,10.08,14.443q7.905,5.287,19.68,5.286,10.68,0,16.73-4.36a13.984,13.984,0,0,0,6.05-11.99,11.591,11.591,0,0,0-2.13-7.248c-1.41-1.854-4.38-3.615-8.88-5.287s-11.37-3.742-20.6-6.213q-15.15-3.924-24.04-8.447t-12.64-10.573a27.207,27.207,0,0,1-3.76-14.661,31.285,31.285,0,0,1,5.67-18.639,36.488,36.488,0,0,1,15.97-12.317q10.29-4.358,24.14-4.36a64.163,64.163,0,0,1,24.09,4.251,42.569,42.569,0,0,1,17.11,12.045,34.408,34.408,0,0,1,7.85,18.258l-23.33,4.251A19.207,19.207,0,0,0,1718.33,64.907Zm-96.58,43.164h-76.36q1.215,14.8,8.35,23.6,8.61,10.628,24.85,10.627a34.279,34.279,0,0,0,18.48-4.85,32.568,32.568,0,0,0,12.15-13.9l22.34,7.085a52.646,52.646,0,0,1-20.82,24.471,57.671,57.671,0,0,1-31.06,8.665q-17.55,0-30.79-7.684a53.264,53.264,0,0,1-20.6-21.473q-7.365-13.788-7.36-31.992,0-19.293,7.25-33.463a52.92,52.92,0,0,1,20.22-21.909q12.96-7.738,30.19-7.739,17.985,0,30.63,8.339t18.91,23.707q6.27,15.369,4.96,36.515h-11.34Zm-19.23-38.586q-7.59-9.81-23.06-9.81-17.115,0-25.72,10.791-6.045,7.562-7.84,19.838h63.85Q1608.22,76.87,1602.52,69.485Zm-125.08,33.136a89.65,89.65,0,0,0-1.15-14.115,44.032,44.032,0,0,0-4.36-13.461,26.167,26.167,0,0,0-9.04-10.028q-5.835-3.814-15.21-3.815a33,33,0,0,0-11.55,2.017,24.094,24.094,0,0,0-9.54,6.486,31.3,31.3,0,0,0-6.43,11.772,58.4,58.4,0,0,0-2.35,17.767V160.5h-23.1V42.78h20.38V56.906a44.269,44.269,0,0,1,11.77-10.42q11.22-6.867,27.14-6.867,12.21,0,20.49,3.924a37.945,37.945,0,0,1,13.47,10.3,47.814,47.814,0,0,1,7.9,13.9,71.757,71.757,0,0,1,3.7,14.715,93.985,93.985,0,0,1,.98,12.644v65.4h-23.1V102.621ZM1339.33,42.78h22.79V160.5h-22.79V42.78Zm0-41.42h22.79V23.487h-22.79V1.36Zm-57.66-1.09h22.79V160.5h-22.79V0.27Zm-35.69,63a29.209,29.209,0,0,0-21.69,13.189,36.056,36.056,0,0,0-4.63,11.391,59.612,59.612,0,0,0-1.42,13.243V160.5h-23V42.78h20.27V61.618a43.733,43.733,0,0,1,2.84-4.4,32.058,32.058,0,0,1,8.06-7.793,35.4,35.4,0,0,1,9.98-5.068,45.986,45.986,0,0,1,11.28-2.18,44.992,44.992,0,0,1,11.12.6V64.144A36.71,36.71,0,0,0,1245.98,63.272ZM1139.76,42.78h22.78V160.5h-22.78V42.78Zm0-41.42h22.78V23.487h-22.78V1.36Zm-57.07,123.715h-64.42L1006.78,160.5H983.128L1034.14,3.54h32.81l51.01,156.96h-23.65ZM1050.29,26.3l-25.1,77.412h50.49ZM865.628,85.508q7.083,2.509,20.928,6,14.822,3.817,23.544,8.448t12.48,11.008a29.86,29.86,0,0,1,3.761,15.424q0,17.441-12.7,27.359T878.6,163.661q-21.476,0-34.989-9.483t-16.568-26.7l23.326-3.6a23.313,23.313,0,0,0,10.082,14.443q7.9,5.287,19.675,5.286,10.68,0,16.731-4.36a13.977,13.977,0,0,0,6.05-11.99,11.608,11.608,0,0,0-2.126-7.248q-2.125-2.781-8.883-5.287t-20.6-6.213q-15.153-3.924-24.035-8.447T834.617,89.487a27.233,27.233,0,0,1-3.76-14.661,31.284,31.284,0,0,1,5.668-18.639A36.482,36.482,0,0,1,852.493,43.87q10.3-4.358,24.144-4.36a64.161,64.161,0,0,1,24.089,4.251,42.6,42.6,0,0,1,17.113,12.045,34.421,34.421,0,0,1,7.848,18.258l-23.326,4.251A19.2,19.2,0,0,0,894.4,64.907q-6.76-4.9-17.549-5.341Q866.5,59.132,860.069,63t-6.431,10.627a9.58,9.58,0,0,0,2.452,6.649Q858.543,83,865.628,85.508Zm-116.847,0q7.083,2.509,20.928,6,14.822,3.817,23.544,8.448t12.48,11.008a29.86,29.86,0,0,1,3.761,15.424q0,17.441-12.7,27.359t-35.043,9.919q-21.476,0-34.989-9.483t-16.568-26.7l23.326-3.6A23.313,23.313,0,0,0,743.6,138.319q7.9,5.287,19.675,5.286,10.68,0,16.731-4.36a13.977,13.977,0,0,0,6.05-11.99,11.608,11.608,0,0,0-2.126-7.248q-2.126-2.781-8.883-5.287t-20.6-6.213q-15.153-3.924-24.035-8.447T717.77,89.487a27.233,27.233,0,0,1-3.76-14.661,31.284,31.284,0,0,1,5.668-18.639A36.482,36.482,0,0,1,735.646,43.87q10.3-4.358,24.144-4.36a64.161,64.161,0,0,1,24.089,4.251,42.6,42.6,0,0,1,17.113,12.045,34.421,34.421,0,0,1,7.848,18.258l-23.326,4.251a19.2,19.2,0,0,0-7.957-13.407Q770.8,60,760.008,59.566,749.651,59.132,743.222,63t-6.431,10.627a9.58,9.58,0,0,0,2.452,6.649Q741.7,83,748.781,85.508Zm-80.549,57.915a46.915,46.915,0,0,1-14.66,13.753q-11.281,6.593-27.741,6.594-13.08,0-21.909-4.85a33.27,33.27,0,0,1-13.352-12.863,35.168,35.168,0,0,1-4.524-17.6,36.676,36.676,0,0,1,3.161-15.7,30.686,30.686,0,0,1,9.374-11.5,50.878,50.878,0,0,1,15.26-7.685,167.437,167.437,0,0,1,17.767-4.033q9.918-1.742,20.874-3.27c4.5-.627,8.951-1.255,13.414-1.883q-0.505-11.286-5.784-17.138-6.049-6.7-20.765-6.7a34.39,34.39,0,0,0-17,4.306q-7.74,4.307-10.791,14.224L590.3,72.537A43.942,43.942,0,0,1,606.92,48.448q12.263-8.936,32.645-8.938,15.8,0,27.523,5.4a34.159,34.159,0,0,1,17.167,17.058,35.719,35.719,0,0,1,3.488,12.208,137.219,137.219,0,0,1,.654,13.843V160.5H668.232V143.423Zm-14.715-38.186q-8.829,1.308-15.968,2.562a101.21,101.21,0,0,0-12.7,3,41.151,41.151,0,0,0-8.338,3.924,18.4,18.4,0,0,0-5.777,5.559,14.29,14.29,0,0,0-2.126,7.957,16.293,16.293,0,0,0,2.289,8.448,15.937,15.937,0,0,0,6.976,6.158,27.336,27.336,0,0,0,11.99,2.289,37.433,37.433,0,0,0,16.677-3.433,32.279,32.279,0,0,0,11.227-8.775,27.633,27.633,0,0,0,5.559-11.118,40.229,40.229,0,0,0,2.126-11.772q0.155-3.734.221-6.613C661.363,104.069,657.291,104.678,653.517,105.237ZM537.106,0.27h22.781V160.5H537.106V0.27ZM464.622,142.3q11.007,0,17.821-5.068t10.41-14.552l23.108,5.45q-5.78,17.223-19.075,26.433t-32.264,9.21q-18.1,0-30.738-8.066a52.348,52.348,0,0,1-19.348-22.127q-6.7-14.061-6.812-31.937,0.107-18.2,6.976-32.21a52.564,52.564,0,0,1,19.62-21.963q12.753-7.955,30.629-7.957,19.293,0,32.972,9.592a44.892,44.892,0,0,1,18.04,26.269l-22.672,6.54a30.422,30.422,0,0,0-11.064-15.424,29.474,29.474,0,0,0-17.6-5.5q-11.229,0-18.421,5.286a31.193,31.193,0,0,0-10.682,14.443,60.015,60.015,0,0,0-3.6,20.928q0.106,18.2,8.338,29.43T464.622,142.3ZM364.231,102.621a90.47,90.47,0,0,0-1.144-14.115,44.032,44.032,0,0,0-4.36-13.461,26.161,26.161,0,0,0-9.047-10.028Q343.848,61.2,334.474,61.2a33.035,33.035,0,0,0-11.554,2.017,24.162,24.162,0,0,0-9.537,6.486,31.4,31.4,0,0,0-6.431,11.772,58.637,58.637,0,0,0-2.344,17.767V160.5H281.5V42.78h20.383V56.906a44.37,44.37,0,0,1,11.772-10.42q11.226-6.867,27.141-6.867,12.207,0,20.492,3.924a37.914,37.914,0,0,1,13.462,10.3,47.752,47.752,0,0,1,7.9,13.9,71.654,71.654,0,0,1,3.706,14.715,95,95,0,0,1,.981,12.644v65.4H364.231V102.621ZM230.818,146.372a44.378,44.378,0,0,1-11.772,10.422q-11.229,6.867-27.141,6.867-12.21,0-20.492-3.924a37.887,37.887,0,0,1-13.462-10.3,47.663,47.663,0,0,1-7.9-13.9,71.525,71.525,0,0,1-3.706-14.715,94.986,94.986,0,0,1-.981-12.644V42.78H168.47v57.879a90.462,90.462,0,0,0,1.144,14.116,43.992,43.992,0,0,0,4.36,13.461,26.134,26.134,0,0,0,9.047,10.028q5.831,3.816,15.206,3.815a33,33,0,0,0,11.554-2.017,24.136,24.136,0,0,0,9.537-6.485,31.39,31.39,0,0,0,6.431-11.772,58.663,58.663,0,0,0,2.344-17.767V42.78h23V160.5H230.818V146.372ZM43.394,61.256a92.376,92.376,0,0,0,11.173,3.87L83.56,73.3q5.449,1.528,12.371,4.088a58.418,58.418,0,0,1,13.407,7.139,36.394,36.394,0,0,1,10.736,12.153q4.251,7.577,4.251,19.021a42.49,42.49,0,0,1-17.93,35.915,59.974,59.974,0,0,1-19.239,9.1,84.951,84.951,0,0,1-23,3.052,76.458,76.458,0,0,1-30.465-5.831,57.269,57.269,0,0,1-22.345-16.677A55.39,55.39,0,0,1-.043,115.483l23.762-3.6q3.6,14.388,15.042,22.4t26.7,8.011a49.086,49.086,0,0,0,17.44-3,30.954,30.954,0,0,0,12.807-8.611,19.907,19.907,0,0,0,4.85-13.462,17.556,17.556,0,0,0-5.5-13.243,24.676,24.676,0,0,0-6.213-4.251,51.884,51.884,0,0,0-8.012-3.106L40.614,84.745a91.933,91.933,0,0,1-11.99-4.523,44.178,44.178,0,0,1-11.172-7.3A34.584,34.584,0,0,1,9.222,61.692q-3.163-6.7-3.161-16.3,0-14.5,7.467-24.579a46.058,46.058,0,0,1,20.22-15.26A75.323,75.323,0,0,1,62.305.379a73.711,73.711,0,0,1,28.5,5.668,54.613,54.613,0,0,1,20.928,15.642,57.74,57.74,0,0,1,11.5,24.689L98.82,50.519a32.415,32.415,0,0,0-6.976-15.205,35.719,35.719,0,0,0-13.08-9.81,42.215,42.215,0,0,0-16.786-3.543A40.671,40.671,0,0,0,46.01,24.577a28.091,28.091,0,0,0-11.554,7.957A17.768,17.768,0,0,0,30.15,44.306a14.748,14.748,0,0,0,3.815,10.573A27.167,27.167,0,0,0,43.394,61.256Z"/>
</svg>
