<svg xmlns="http://www.w3.org/2000/svg" xmlns:xlink="http://www.w3.org/1999/xlink" width="1355" height="165" viewBox="0 0 1355 165">
  <defs>
    <style>
      .cls-1 {
        fill: #171f2c;
        fill-rule: evenodd;
        filter: url(#filter);
      }
    </style>
    <filter id="filter" x="0.25" y="0.281" width="1354.31" height="163.5" filterUnits="userSpaceOnUse">
      <feFlood result="flood" flood-color="#fff"/>
      <feComposite result="composite" operator="in" in2="SourceGraphic"/>
      <feBlend result="blend" in2="SourceGraphic"/>
    </filter>
  </defs>
  <path id="Delta_Airlines" data-name="Delta Airlines" class="cls-1" d="M1322.63,64.907q-6.75-4.9-17.55-5.341-10.35-.434-16.78,3.433t-6.43,10.627a9.556,9.556,0,0,0,2.45,6.649q2.445,2.726,9.54,5.232t20.92,6q14.835,3.817,23.55,8.448t12.48,11.008a29.831,29.831,0,0,1,3.76,15.424q0,17.441-12.7,27.359t-35.04,9.919q-21.48,0-34.99-9.483t-16.57-26.7l23.33-3.6a23.3,23.3,0,0,0,10.08,14.443q7.9,5.287,19.67,5.286,10.68,0,16.73-4.36a13.96,13.96,0,0,0,6.05-11.99,11.587,11.587,0,0,0-2.12-7.248q-2.13-2.781-8.88-5.287-6.765-2.506-20.61-6.213-15.15-3.924-24.03-8.447t-12.64-10.573a27.207,27.207,0,0,1-3.76-14.661,31.278,31.278,0,0,1,5.66-18.639,36.488,36.488,0,0,1,15.97-12.317q10.3-4.358,24.14-4.36a64.163,64.163,0,0,1,24.09,4.251,42.6,42.6,0,0,1,17.12,12.045,34.485,34.485,0,0,1,7.85,18.258l-23.33,4.251A19.184,19.184,0,0,0,1322.63,64.907Zm-96.57,43.164h-76.37q1.23,14.8,8.35,23.6,8.61,10.628,24.85,10.627a34.255,34.255,0,0,0,18.48-4.85,32.5,32.5,0,0,0,12.15-13.9l22.35,7.085a52.76,52.76,0,0,1-20.82,24.471,57.705,57.705,0,0,1-31.07,8.665q-17.55,0-30.79-7.684a53.33,53.33,0,0,1-20.6-21.473q-7.35-13.788-7.36-31.992,0-19.293,7.25-33.463a52.92,52.92,0,0,1,20.22-21.909q12.975-7.738,30.19-7.739,17.985,0,30.63,8.339t18.92,23.707q6.255,15.369,4.95,36.515h-11.33Zm-19.24-38.586q-7.575-9.81-23.05-9.81-17.115,0-25.73,10.791-6.03,7.562-7.84,19.838h63.85Q1212.52,76.87,1206.82,69.485Zm-125.08,33.136a90.821,90.821,0,0,0-1.14-14.115,44.3,44.3,0,0,0-4.36-13.461,26.192,26.192,0,0,0-9.05-10.028q-5.835-3.814-15.21-3.815a33,33,0,0,0-11.55,2.017,24.236,24.236,0,0,0-9.54,6.486,31.44,31.44,0,0,0-6.43,11.772,58.741,58.741,0,0,0-2.34,17.767V160.5H999.011V42.78h20.379V56.906a44.467,44.467,0,0,1,11.78-10.42q11.22-6.867,27.14-6.867,12.2,0,20.49,3.924a37.907,37.907,0,0,1,13.46,10.3,47.586,47.586,0,0,1,7.9,13.9,71.8,71.8,0,0,1,3.71,14.715,95.661,95.661,0,0,1,.98,12.644v65.4h-23.11V102.621ZM943.64,42.78h22.781V160.5H943.64V42.78Zm0-41.42h22.781V23.487H943.64V1.36ZM885.979,0.27H908.76V160.5H885.979V0.27Zm-35.7,63a29.233,29.233,0,0,0-21.691,13.189,36.271,36.271,0,0,0-4.632,11.391,59.852,59.852,0,0,0-1.417,13.243V160.5h-23V42.78h20.274V61.618a43.162,43.162,0,0,1,2.834-4.4,32.114,32.114,0,0,1,8.066-7.793,35.331,35.331,0,0,1,9.973-5.068,45.965,45.965,0,0,1,11.282-2.18,44.981,44.981,0,0,1,11.118.6V64.144A36.692,36.692,0,0,0,850.284,63.272ZM744.065,42.78h22.781V160.5H744.065V42.78Zm0-41.42h22.781V23.487H744.065V1.36ZM686.993,125.075H622.571L611.086,160.5H587.433L638.445,3.54h32.809L722.266,160.5H698.613ZM654.594,26.3l-25.1,77.412h50.489ZM506.231,143.423a46.915,46.915,0,0,1-14.66,13.753q-11.282,6.593-27.741,6.594-13.08,0-21.909-4.85a33.27,33.27,0,0,1-13.352-12.863,35.168,35.168,0,0,1-4.524-17.6,36.676,36.676,0,0,1,3.161-15.7,30.686,30.686,0,0,1,9.374-11.5,50.878,50.878,0,0,1,15.26-7.685,167.437,167.437,0,0,1,17.767-4.033q9.918-1.742,20.874-3.27c4.5-.627,8.95-1.255,13.414-1.883q-0.507-11.286-5.784-17.138-6.05-6.7-20.765-6.7a34.39,34.39,0,0,0-17,4.306q-7.74,4.307-10.791,14.224L428.3,72.537a43.942,43.942,0,0,1,16.623-24.089q12.263-8.936,32.645-8.938,15.8,0,27.523,5.4a34.159,34.159,0,0,1,17.167,17.058,35.719,35.719,0,0,1,3.488,12.208,137.219,137.219,0,0,1,.654,13.843V160.5H506.231V143.423Zm-14.715-38.186q-8.829,1.308-15.968,2.562a101.21,101.21,0,0,0-12.7,3,41.151,41.151,0,0,0-8.338,3.924,18.4,18.4,0,0,0-5.777,5.559,14.29,14.29,0,0,0-2.126,7.957,16.293,16.293,0,0,0,2.289,8.448,15.937,15.937,0,0,0,6.976,6.158,27.336,27.336,0,0,0,11.99,2.289A37.433,37.433,0,0,0,484.54,141.7a32.279,32.279,0,0,0,11.227-8.775,27.633,27.633,0,0,0,5.559-11.118,40.229,40.229,0,0,0,2.126-11.772q0.154-3.734.221-6.613C499.362,104.069,495.29,104.678,491.516,105.237ZM384.045,162.353a49.338,49.338,0,0,1-19.075-4.142,25.992,25.992,0,0,1-12.644-11.99,34.506,34.506,0,0,1-4.087-14.878q-0.273-7.575-.273-17.168V61.092H325.4V42.78h22.563V10.08h22.89v32.7h34.989V61.092H370.856v51.993q0,7.086.164,12.317a18.639,18.639,0,0,0,2.234,8.829q3.924,6.759,12.481,7.685a82.3,82.3,0,0,0,20.11-.709V160.5A97.557,97.557,0,0,1,384.045,162.353ZM283,0.27h22.781V160.5H283V0.27Zm-37.931,107.8H168.708q1.228,14.8,8.348,23.6,8.61,10.628,24.852,10.627a34.25,34.25,0,0,0,18.475-4.85,32.524,32.524,0,0,0,12.154-13.9l22.345,7.085A52.741,52.741,0,0,1,234.063,155.1,57.7,57.7,0,0,1,203,163.77q-17.55,0-30.793-7.684a53.306,53.306,0,0,1-20.6-21.473q-7.357-13.788-7.357-31.992,0-19.293,7.248-33.463a52.946,52.946,0,0,1,20.22-21.909q12.97-7.738,30.193-7.739,17.985,0,30.629,8.339t18.911,23.707q6.267,15.369,4.96,36.515H245.072ZM225.833,69.485q-7.576-9.81-23.053-9.81-17.113,0-25.724,10.791-6.035,7.562-7.838,19.838h63.85Q231.533,76.87,225.833,69.485Zm-125.892,76.9q-12.59,10.847-31.01,13.134a94.506,94.506,0,0,1-11.391.872q-5.942.109-8.12,0.109H0.26V3.54H49.419q2.179,0,8.121.109a95.06,95.06,0,0,1,11.391.872Q87.349,6.81,99.941,17.71a68.187,68.187,0,0,1,19.021,27.632,101.431,101.431,0,0,1,6.431,36.678,101.741,101.741,0,0,1-6.431,36.788A67.74,67.74,0,0,1,99.941,146.385ZM97.6,56.351A49.878,49.878,0,0,0,86.534,36.513,33.946,33.946,0,0,0,67.3,26.321a57.853,57.853,0,0,0-9.1-.927q-5.178-.164-8.775-0.163H23.586V138.809H49.419q3.7,0,8.829-.218a74.943,74.943,0,0,0,9.047-.872A34.347,34.347,0,0,0,86.752,127.31a49.742,49.742,0,0,0,10.955-20,89.359,89.359,0,0,0,3.488-25.288A87.855,87.855,0,0,0,97.6,56.351Z"/>
</svg>
