<svg xmlns="http://www.w3.org/2000/svg" width="1633" height="172" viewBox="0 0 1633 172">
  <defs>
    <style>
      .cls-1 {
        fill: #fff;
        fill-rule: evenodd;
      }
    </style>
  </defs>
  <path id="Air_Côte_d_Ivoire" data-name="Air Côte d’Ivoire" class="cls-1" d="M1631.64,115.071h-87.71q1.23,14.8,8.36,23.6,8.61,10.628,24.85,10.627a34.22,34.22,0,0,0,18.47-4.85,32.523,32.523,0,0,0,12.16-13.9l22.34,7.085a52.76,52.76,0,0,1-20.82,24.471,57.68,57.68,0,0,1-31.06,8.665q-17.55,0-30.79-7.684a53.353,53.353,0,0,1-20.61-21.473q-7.35-13.788-7.35-31.992,0-19.293,7.25-33.463a52.963,52.963,0,0,1,20.21-21.909q12.975-7.738,30.2-7.739,17.985,0,30.63,8.339t18.91,23.707Q1632.95,93.925,1631.64,115.071Zm-30.58-38.586q-7.575-9.81-23.05-9.81-17.115,0-25.72,10.791-6.045,7.562-7.84,19.838h63.85Q1606.755,83.87,1601.06,76.485Zm-106.38-6.213a29.209,29.209,0,0,0-21.69,13.189,36.292,36.292,0,0,0-4.63,11.391,59.609,59.609,0,0,0-1.42,13.243V167.5h-23V49.78h20.27V68.618a45.562,45.562,0,0,1,2.84-4.4,32.058,32.058,0,0,1,8.06-7.793,35.4,35.4,0,0,1,9.98-5.068,45.986,45.986,0,0,1,11.28-2.18,44.992,44.992,0,0,1,11.12.6V71.144A36.692,36.692,0,0,0,1494.68,70.272ZM1388.46,49.78h22.78V167.5h-22.78V49.78Zm0-41.42h22.78V30.487h-22.78V8.36Zm-53.41,154.508q-12.975,7.9-30.52,7.9-17.655,0-30.63-7.957a53.168,53.168,0,0,1-20-21.963q-7.035-14.005-7.03-32.319,0-18.419,7.19-32.428a53.2,53.2,0,0,1,20.17-21.8q12.975-7.792,30.3-7.794,17.655,0,30.63,7.957a53.669,53.669,0,0,1,20.06,21.909q7.08,13.954,7.08,32.155,0,18.421-7.14,32.427A53.521,53.521,0,0,1,1335.05,162.868Zm-5.39-83.821q-8.46-11.062-25.13-11.063-11.445,0-18.86,5.177a30.618,30.618,0,0,0-11,14.279,57.089,57.089,0,0,0-3.6,21.092q0,18.531,8.5,29.648t24.96,11.118q16.89,0,25.23-11.391t8.34-29.375Q1338.1,90.112,1329.66,79.047ZM1172.31,167.5L1129.59,49.78h22.99l31.29,89.162,31.28-89.162h23L1195.42,167.5h-23.11ZM1085,10.54h22.79V167.5H1085V10.54Zm-57.44,52.32,1.42-10.137c3.12,0.218,5.56-.363,7.3-1.744a9.978,9.978,0,0,0,3.49-5.777,24.477,24.477,0,0,0,.33-8.393h-12.54V10.54h24.09V38.989q0,12.863-6.16,19.4T1027.56,62.86Zm-52.967,93.809a48.7,48.7,0,0,1-6.758,5.872q-11.445,8.228-28.34,8.229-16.461,0-28.395-8.175a53.328,53.328,0,0,1-18.421-22.29q-6.486-14.115-6.485-31.774,0-17.765,6.54-31.774a53.176,53.176,0,0,1,18.584-22.127q12.043-8.119,28.613-8.12,16.677,0,28.067,8.121a47.754,47.754,0,0,1,3.979,3.171V10.54h22.89V167.5H974.593V156.669Zm-3.325-69.72a30.533,30.533,0,0,0-10.246-14.606q-6.923-5.232-17.6-5.232-11.338,0-18.639,5.559A32.86,32.86,0,0,0,913.934,87.6a58.814,58.814,0,0,0-3.542,20.928,59.582,59.582,0,0,0,3.542,21.092,33.337,33.337,0,0,0,10.682,14.987q7.139,5.559,18.04,5.559,11.225,0,18.312-5.341a30.408,30.408,0,0,0,10.355-14.715,65.408,65.408,0,0,0,3.27-21.582A64.445,64.445,0,0,0,971.268,86.949ZM813.383,115.071H737.014q1.23,14.8,8.353,23.6,8.61,10.628,24.852,10.627a34.256,34.256,0,0,0,18.476-4.85,32.528,32.528,0,0,0,12.153-13.9l22.345,7.085A52.741,52.741,0,0,1,802.374,162.1a57.706,57.706,0,0,1-31.065,8.665q-17.55,0-30.792-7.684a53.306,53.306,0,0,1-20.6-21.473q-7.358-13.788-7.358-31.992,0-19.293,7.249-33.463a52.937,52.937,0,0,1,20.219-21.909Q753,46.511,770.219,46.51q17.985,0,30.629,8.339T819.76,78.556q6.265,15.369,4.959,36.515H813.383ZM794.145,76.485q-7.578-9.81-23.054-9.81-17.114,0-25.724,10.791-6.034,7.562-7.838,19.838h63.85Q799.844,83.87,794.145,76.485ZM678.007,169.353a49.333,49.333,0,0,1-19.075-4.142,25.988,25.988,0,0,1-12.644-11.99,34.508,34.508,0,0,1-4.088-14.878q-0.273-7.575-.272-17.168V68.092H619.365V49.78h22.563V17.08h22.89v32.7h34.989V68.092H664.818v51.993q0,7.086.163,12.317a18.639,18.639,0,0,0,2.235,8.829q3.924,6.759,12.48,7.685a82.309,82.309,0,0,0,20.111-.709V167.5A97.557,97.557,0,0,1,678.007,169.353Zm-96.791-6.485q-12.973,7.9-30.52,7.9-17.658,0-30.629-7.957a53.159,53.159,0,0,1-20-21.963q-7.031-14.005-7.03-32.319,0-18.419,7.194-32.428a53.172,53.172,0,0,1,20.165-21.8q12.969-7.792,30.3-7.794,17.658,0,30.629,7.957A53.644,53.644,0,0,1,601.38,76.376q7.084,13.954,7.086,32.155,0,18.421-7.14,32.427A53.548,53.548,0,0,1,581.216,162.868Zm-5.4-83.821Q567.372,67.985,550.7,67.983q-11.445,0-18.857,5.177A30.667,30.667,0,0,0,520.83,87.44a57.132,57.132,0,0,0-3.6,21.092q0,18.531,8.5,29.648T550.7,149.3q16.893,0,25.233-11.391t8.339-29.375Q584.268,90.112,575.82,79.047Zm-25.342-66L534.346,32.34h-21.8L540.668-.36h19.62l28.231,32.7h-21.8ZM377.985,141.558q11.172,7.521,27.85,7.521,18.639,0,30.356-9.428t16.3-25.779l23.108,6.213q-6.978,23.217-24.8,36.951T405.835,170.77q-23.544,0-40.112-10.3a66.786,66.786,0,0,1-25.343-28.722q-8.775-18.42-8.774-42.728t8.774-42.728a66.787,66.787,0,0,1,25.343-28.722q16.566-10.3,40.112-10.3Q432.976,7.27,450.8,21t24.8,36.951l-23.108,6.213q-4.578-16.457-16.3-25.833t-30.356-9.374q-16.677,0-27.795,7.521a45.919,45.919,0,0,0-16.732,21.037q-5.615,13.517-5.613,31.5-0.111,17.985,5.5,31.5A45.778,45.778,0,0,0,377.985,141.558ZM263.211,70.272A29.233,29.233,0,0,0,241.52,83.461a36.271,36.271,0,0,0-4.632,11.391,59.849,59.849,0,0,0-1.417,13.243V167.5h-23V49.78h20.274V68.618a43.153,43.153,0,0,1,2.834-4.4,32.114,32.114,0,0,1,8.066-7.793,35.331,35.331,0,0,1,9.973-5.068,45.965,45.965,0,0,1,11.282-2.18,44.981,44.981,0,0,1,11.118.6V71.144A36.692,36.692,0,0,0,263.211,70.272ZM156.991,49.78h22.781V167.5H156.991V49.78Zm0-41.42h22.781V30.487H156.991V8.36ZM99.92,132.075H35.5L24.013,167.5H0.36L51.372,10.54H84.181L135.193,167.5H111.54ZM67.521,33.3l-25.1,77.412H92.913Z"/>
</svg>
