<svg xmlns="http://www.w3.org/2000/svg" width="1451" height="217" viewBox="0 0 1451 217">
  <defs>
    <style>
      .cls-1 {
        fill: #171f2c;
        fill-rule: evenodd;
      }
    </style>
  </defs>
  <path id="Virgin_Atlantic" data-name="Virgin Atlantic" class="cls-1" d="M1417.24,66.488a29.513,29.513,0,0,0-17.61-5.5q-11.22,0-18.42,5.286a31.135,31.135,0,0,0-10.68,14.443,59.921,59.921,0,0,0-3.6,20.928q0.1,18.2,8.34,29.43t24.36,11.227q11.01,0,17.82-5.068t10.41-14.552l23.11,5.45q-5.775,17.223-19.07,26.433t-32.27,9.21q-18.09,0-30.74-8.066a52.344,52.344,0,0,1-19.34-22.127q-6.705-14.061-6.82-31.937,0.12-18.2,6.98-32.21a52.59,52.59,0,0,1,19.62-21.963q12.75-7.955,30.63-7.957,19.29,0,32.97,9.592a44.9,44.9,0,0,1,18.04,26.269l-22.67,6.54A30.41,30.41,0,0,0,1417.24,66.488ZM1293.79,42.78h22.78V160.5h-22.78V42.78Zm0-41.42h22.78V23.487h-22.78V1.36Zm-48.72,160.993a49.3,49.3,0,0,1-19.07-4.142,26.013,26.013,0,0,1-12.65-11.99,34.551,34.551,0,0,1-4.08-14.878q-0.27-7.575-.28-17.168V61.092h-22.56V42.78h22.56V10.08h22.9v32.7h34.98V61.092h-34.98v51.993q0,7.086.16,12.317a18.662,18.662,0,0,0,2.23,8.829q3.93,6.759,12.48,7.685a82.289,82.289,0,0,0,20.11-.709V160.5A97.552,97.552,0,0,1,1245.07,162.353Zm-97-59.732a90.859,90.859,0,0,0-1.15-14.115,44.032,44.032,0,0,0-4.36-13.461,26.113,26.113,0,0,0-9.05-10.028q-5.82-3.814-15.2-3.815a33,33,0,0,0-11.55,2.017,24.094,24.094,0,0,0-9.54,6.486,31.3,31.3,0,0,0-6.43,11.772,58.4,58.4,0,0,0-2.35,17.767V160.5h-23.1V42.78h20.38V56.906a44.269,44.269,0,0,1,11.77-10.42q11.22-6.867,27.14-6.867,12.21,0,20.49,3.924a37.907,37.907,0,0,1,13.46,10.3,47.618,47.618,0,0,1,7.91,13.9,71.757,71.757,0,0,1,3.7,14.715,93.985,93.985,0,0,1,.98,12.644v65.4h-23.1V102.621Zm-131.13,40.8a46.872,46.872,0,0,1-14.66,13.753q-11.28,6.593-27.739,6.594-13.08,0-21.909-4.851a33.27,33.27,0,0,1-13.353-12.862,35.178,35.178,0,0,1-4.523-17.6,36.661,36.661,0,0,1,3.161-15.7,30.676,30.676,0,0,1,9.374-11.5,50.866,50.866,0,0,1,15.26-7.685,167.38,167.38,0,0,1,17.767-4.033q9.917-1.742,20.872-3.27c4.51-.627,8.95-1.255,13.42-1.883q-0.51-11.286-5.79-17.138-6.045-6.7-20.763-6.7a34.385,34.385,0,0,0-17,4.306q-7.741,4.307-10.791,14.224l-21.255-6.54a43.935,43.935,0,0,1,16.622-24.089q12.262-8.936,32.646-8.938,15.8,0,27.525,5.4a34.13,34.13,0,0,1,17.16,17.058,35.567,35.567,0,0,1,3.49,12.208,135.982,135.982,0,0,1,.66,13.843V160.5h-20.17V143.423Zm-14.71-38.186q-8.833,1.308-15.972,2.561a101.4,101.4,0,0,0-12.7,3,41.16,41.16,0,0,0-8.339,3.924,18.41,18.41,0,0,0-5.777,5.559,14.29,14.29,0,0,0-2.125,7.957,16.293,16.293,0,0,0,2.289,8.448,15.931,15.931,0,0,0,6.976,6.158,27.33,27.33,0,0,0,11.99,2.289,37.439,37.439,0,0,0,16.677-3.433,32.352,32.352,0,0,0,11.229-8.775,27.791,27.791,0,0,0,5.56-11.118,40.3,40.3,0,0,0,2.12-11.772c0.11-2.492.18-4.69,0.22-6.612C1010.07,104.069,1006,104.678,1002.23,105.237ZM885.816,0.27H908.6V160.5H885.816V0.27ZM837.1,162.353a49.333,49.333,0,0,1-19.075-4.142,25.988,25.988,0,0,1-12.644-11.99,34.508,34.508,0,0,1-4.088-14.878q-0.273-7.575-.272-17.168V61.092H778.454V42.78h22.563V10.08h22.89v32.7H858.9V61.092H823.907v51.993q0,7.086.163,12.317a18.639,18.639,0,0,0,2.235,8.829q3.924,6.759,12.48,7.685a82.309,82.309,0,0,0,20.111-.709V160.5A97.562,97.562,0,0,1,837.1,162.353ZM741,125.075H676.578L665.093,160.5H641.44L692.452,3.54h32.809L776.273,160.5H752.62ZM708.6,26.3l-25.1,77.412h50.489ZM557.295,102.621a90.474,90.474,0,0,0-1.145-14.115,44.032,44.032,0,0,0-4.36-13.461,26.161,26.161,0,0,0-9.047-10.028Q536.911,61.2,527.538,61.2a33.027,33.027,0,0,0-11.554,2.017,24.158,24.158,0,0,0-9.538,6.486,31.4,31.4,0,0,0-6.431,11.772,58.639,58.639,0,0,0-2.343,17.767V160.5H474.564V42.78h20.383V56.906a44.339,44.339,0,0,1,11.772-10.42q11.224-6.867,27.141-6.867,12.205,0,20.492,3.924a37.919,37.919,0,0,1,13.461,10.3,47.755,47.755,0,0,1,7.9,13.9,71.718,71.718,0,0,1,3.706,14.715A95,95,0,0,1,580.4,95.1v65.4H557.295V102.621ZM419.192,42.78h22.781V160.5H419.192V42.78Zm0-41.42h22.781V23.487H419.192V1.36ZM384.969,181.1q-2.508,11.88-9.537,19.62a42.868,42.868,0,0,1-17.876,11.554,73.825,73.825,0,0,1-24.58,3.815,58.02,58.02,0,0,1-18.366-2.943,53.106,53.106,0,0,1-16.187-8.666,47.9,47.9,0,0,1-12.1-14.115l21.037-10.682a23.887,23.887,0,0,0,10.9,11.009,33.384,33.384,0,0,0,14.933,3.488,36.717,36.717,0,0,0,16.568-3.434,23.037,23.037,0,0,0,10.41-10.3q3.54-6.867,3.433-17V152.3a48.9,48.9,0,0,1-4.033,3.237q-11.445,8.228-28.34,8.229-16.459,0-28.394-8.175a53.32,53.32,0,0,1-18.421-22.29q-6.486-14.115-6.486-31.774,0-17.765,6.54-31.774a53.178,53.178,0,0,1,18.585-22.127q12.042-8.119,28.612-8.12,16.677,0,28.068,8.121a47.5,47.5,0,0,1,6.594,5.676V42.78H386.5V163.661q0,4.686-.327,8.938A68.433,68.433,0,0,1,384.969,181.1ZM363.006,79.949A30.54,30.54,0,0,0,352.76,65.343q-6.924-5.232-17.6-5.232-11.337,0-18.639,5.559A32.858,32.858,0,0,0,305.672,80.6a58.816,58.816,0,0,0-3.543,20.928,59.582,59.582,0,0,0,3.543,21.092,33.33,33.33,0,0,0,10.682,14.987q7.137,5.559,18.039,5.559,11.226,0,18.312-5.341a30.4,30.4,0,0,0,10.355-14.715,65.408,65.408,0,0,0,3.27-21.582A64.447,64.447,0,0,0,363.006,79.949ZM255.314,63.272a29.229,29.229,0,0,0-21.691,13.189,36.3,36.3,0,0,0-4.633,11.391,59.912,59.912,0,0,0-1.417,13.243V160.5h-23V42.78h20.274V61.618a43.325,43.325,0,0,1,2.834-4.4,32.131,32.131,0,0,1,8.066-7.793,35.337,35.337,0,0,1,9.974-5.068A45.958,45.958,0,0,1,257,42.181a44.975,44.975,0,0,1,11.118.6V64.144A36.684,36.684,0,0,0,255.314,63.272ZM149.094,42.78h22.781V160.5H149.094V42.78Zm0-41.42h22.781V23.487H149.094V1.36ZM51.1,160.5L0.09,3.54H23.743L67.234,137.5,111.27,3.54h23.653L83.911,160.5H51.1Z"/>
</svg>
