<svg xmlns="http://www.w3.org/2000/svg" width="1302" height="164" viewBox="0 0 1302 164">
  <defs>
    <style>
      .cls-1 {
        fill: #fff;
        fill-rule: evenodd;
      }
    </style>
  </defs>
  <path id="Air_Mauritius" data-name="Air Mauritius" class="cls-1" d="M1270.52,63.907q-6.765-4.9-17.55-5.341-10.365-.434-16.79,3.433t-6.43,10.627a9.6,9.6,0,0,0,2.45,6.649q2.46,2.726,9.54,5.232t20.93,6q14.82,3.817,23.54,8.448t12.48,11.008a29.831,29.831,0,0,1,3.76,15.424q0,17.441-12.69,27.359-12.705,9.92-35.05,9.919-21.465,0-34.99-9.483t-16.57-26.7l23.33-3.6a23.3,23.3,0,0,0,10.08,14.443q7.9,5.287,19.68,5.286,10.68,0,16.73-4.36a13.984,13.984,0,0,0,6.05-11.99,11.591,11.591,0,0,0-2.13-7.248c-1.41-1.854-4.38-3.615-8.88-5.287s-11.37-3.742-20.6-6.213q-15.15-3.924-24.04-8.448t-12.64-10.573a27.207,27.207,0,0,1-3.76-14.661,31.285,31.285,0,0,1,5.67-18.639,36.488,36.488,0,0,1,15.97-12.317q10.29-4.358,24.14-4.36a64.163,64.163,0,0,1,24.09,4.251,42.569,42.569,0,0,1,17.11,12.045,34.408,34.408,0,0,1,7.85,18.258l-23.33,4.251A19.207,19.207,0,0,0,1270.52,63.907ZM1158.9,145.372a44.262,44.262,0,0,1-11.77,10.422q-11.22,6.867-27.14,6.867-12.21,0-20.49-3.924a37.817,37.817,0,0,1-13.46-10.3,47.62,47.62,0,0,1-7.91-13.9,71.757,71.757,0,0,1-3.7-14.715,93.971,93.971,0,0,1-.98-12.644V41.78h23.1V99.659a90.85,90.85,0,0,0,1.15,14.116,43.75,43.75,0,0,0,4.36,13.461,26.1,26.1,0,0,0,9.05,10.028q5.82,3.816,15.2,3.815a33.047,33.047,0,0,0,11.56-2.017,24.092,24.092,0,0,0,9.53-6.485,31.278,31.278,0,0,0,6.43-11.772,58.4,58.4,0,0,0,2.35-17.767V41.78h23V159.5H1158.9V145.372ZM1020.15,41.78h22.78V159.5h-22.78V41.78Zm0-41.42h22.78V22.487h-22.78V0.36ZM971.427,161.353a49.333,49.333,0,0,1-19.075-4.142,25.988,25.988,0,0,1-12.644-11.99,34.508,34.508,0,0,1-4.088-14.878q-0.273-7.575-.272-17.168V60.092H912.785V41.78h22.563V9.08h22.89v32.7h34.989V60.092H958.238v51.993q0,7.086.163,12.317a18.639,18.639,0,0,0,2.235,8.829q3.924,6.759,12.48,7.685a82.309,82.309,0,0,0,20.111-.709V159.5A97.557,97.557,0,0,1,971.427,161.353ZM870.385,41.78h22.781V159.5H870.385V41.78Zm0-41.42h22.781V22.487H870.385V0.36Zm-35.7,61.912A29.233,29.233,0,0,0,813,75.461a36.271,36.271,0,0,0-4.632,11.391,59.912,59.912,0,0,0-1.417,13.243V159.5h-23V41.78h20.274V60.618a43.162,43.162,0,0,1,2.834-4.4,32.131,32.131,0,0,1,8.066-7.793,35.345,35.345,0,0,1,9.973-5.068,45.965,45.965,0,0,1,11.282-2.18,44.975,44.975,0,0,1,11.118.6V63.144A36.692,36.692,0,0,0,834.689,62.272Zm-101.531,83.1a44.363,44.363,0,0,1-11.772,10.422q-11.227,6.867-27.141,6.867-12.209,0-20.492-3.924a37.883,37.883,0,0,1-13.461-10.3,47.666,47.666,0,0,1-7.9-13.9,71.59,71.59,0,0,1-3.706-14.715,94.986,94.986,0,0,1-.981-12.644V41.78H670.81V99.659a90.466,90.466,0,0,0,1.145,14.116,43.965,43.965,0,0,0,4.36,13.461,26.118,26.118,0,0,0,9.047,10.028q5.829,3.816,15.205,3.815a32.993,32.993,0,0,0,11.554-2.017,24.132,24.132,0,0,0,9.538-6.485,31.418,31.418,0,0,0,6.431-11.772,58.7,58.7,0,0,0,2.343-17.767V41.78h23V159.5H733.158V145.372ZM601.38,142.423a46.918,46.918,0,0,1-14.661,13.753q-11.282,6.593-27.74,6.594-13.082,0-21.909-4.85a33.279,33.279,0,0,1-13.353-12.863,35.179,35.179,0,0,1-4.524-17.6,36.676,36.676,0,0,1,3.161-15.7,30.679,30.679,0,0,1,9.375-11.5,50.854,50.854,0,0,1,15.26-7.685,167.415,167.415,0,0,1,17.766-4.033q9.918-1.742,20.874-3.27c4.5-.627,8.951-1.255,13.414-1.883q-0.505-11.286-5.784-17.138-6.05-6.7-20.764-6.7a34.391,34.391,0,0,0-17,4.306q-7.74,4.307-10.79,14.224l-21.255-6.54a43.935,43.935,0,0,1,16.622-24.089q12.262-8.936,32.646-8.938,15.8,0,27.522,5.4A34.161,34.161,0,0,1,617.4,60.964a35.742,35.742,0,0,1,3.488,12.208,137.232,137.232,0,0,1,.653,13.843V159.5H601.38V142.423Zm-14.716-38.186q-8.827,1.308-15.968,2.562a101.252,101.252,0,0,0-12.7,3,41.176,41.176,0,0,0-8.338,3.924,18.41,18.41,0,0,0-5.777,5.559,14.29,14.29,0,0,0-2.125,7.957,16.293,16.293,0,0,0,2.289,8.448,15.934,15.934,0,0,0,6.975,6.158,27.337,27.337,0,0,0,11.991,2.289,37.431,37.431,0,0,0,16.676-3.433,32.283,32.283,0,0,0,11.228-8.775,27.618,27.618,0,0,0,5.558-11.118,40.2,40.2,0,0,0,2.126-11.772q0.154-3.734.222-6.613C594.511,103.069,590.438,103.678,586.664,104.237ZM473.633,52.026L422.948,159.5H412.593L361.8,52.026V159.5H340.326V2.54h20.6l56.9,118.047L474.4,2.54h20.819V159.391H473.633V52.026ZM263.211,62.272A29.233,29.233,0,0,0,241.52,75.461a36.271,36.271,0,0,0-4.632,11.391,59.852,59.852,0,0,0-1.417,13.243V159.5h-23V41.78h20.274V60.618a43.153,43.153,0,0,1,2.834-4.4,32.114,32.114,0,0,1,8.066-7.793,35.331,35.331,0,0,1,9.973-5.068,45.965,45.965,0,0,1,11.282-2.18,44.981,44.981,0,0,1,11.118.6V63.144A36.692,36.692,0,0,0,263.211,62.272ZM156.991,41.78h22.781V159.5H156.991V41.78Zm0-41.42h22.781V22.487H156.991V0.36ZM99.92,124.075H35.5L24.013,159.5H0.36L51.372,2.54H84.181L135.193,159.5H111.54ZM67.521,25.3l-25.1,77.412H92.913Z"/>
</svg>
