<svg xmlns="http://www.w3.org/2000/svg" width="1517" height="216" viewBox="0 0 1517 216">
  <defs>
    <style>
      .cls-1 {
        fill: #171f2c;
        fill-rule: evenodd;
      }
    </style>
  </defs>
  <path id="Livery_Package" data-name="Livery Package" class="cls-1" d="M0.44,159.5H94.289V138.027H23.221V2.54H0.44V159.5ZM115,22.487h22.781V0.36H115V22.487ZM115,159.5h22.781V41.78H115V159.5Zm87.309,0h23.108L268.143,41.78h-23l-31.283,89.162L182.578,41.78h-23Zm133.308,3.27A57.373,57.373,0,0,0,366.789,154a52.915,52.915,0,0,0,20.71-24.362l-22.345-7.085A31.94,31.94,0,0,1,352.946,136.5a34.622,34.622,0,0,1-18.421,4.8q-14.826,0-23.326-8.884t-9.919-25.342h87.745q0.216-4.359.218-6.431,0-19.073-6.595-33.082a48.924,48.924,0,0,0-18.911-21.527q-12.32-7.521-29.212-7.521-17.115,0-30.193,7.739a52.227,52.227,0,0,0-20.274,22.018q-7.194,14.281-7.194,33.354,0,17.985,7.357,31.882a53.019,53.019,0,0,0,20.656,21.583q13.3,7.683,30.738,7.684h0ZM301.825,89.3Q304,74.262,312.452,66.469T335.4,58.675q13.514,0,20.982,7.521T365.7,89.3H301.825ZM413.44,159.5h23V100.1q0-23.871,14.824-33.354a27.588,27.588,0,0,1,8.12-3.542,35.692,35.692,0,0,1,8.993-1.145,30.664,30.664,0,0,1,8.611,1.09V41.78a44.985,44.985,0,0,0-21.037,1.09,34.431,34.431,0,0,0-11.336,5.559,34.607,34.607,0,0,0-10.9,12.1V41.78H413.44V159.5Zm97.228,52.32h21.691L597.323,41.78H574.215L540.97,130.288,506.2,41.78H482.437L530.07,158.955ZM657.925,159.5h22.781V103.147h40.657a78.171,78.171,0,0,0,12.1-.872,46.986,46.986,0,0,0,21.582-8.884,42.61,42.61,0,0,0,13.3-17.222,58.705,58.705,0,0,0,4.469-23.38A59.453,59.453,0,0,0,768.4,29.463a42.1,42.1,0,0,0-13.243-17.276q-8.829-6.811-21.691-8.774a78.325,78.325,0,0,0-12.1-.872H657.925V159.5Zm22.781-77.935V24.013h39.785a38.646,38.646,0,0,1,9.919,1.09q9.7,2.289,14.442,10.137a33.276,33.276,0,0,1,4.742,17.549,33.271,33.271,0,0,1-4.742,17.549q-4.741,7.848-14.442,10.246a44.481,44.481,0,0,1-9.919.981H680.706ZM824.26,162.77q14.279,0,24.688-5.014a46.029,46.029,0,0,0,17.713-15.369V159.5h20.165V87.015a111.728,111.728,0,0,0-.818-14.66,38.942,38.942,0,0,0-3.324-11.391,34.741,34.741,0,0,0-16.895-16.895q-11.554-5.559-27.795-5.559-19.947,0-32.428,8.72t-16.84,24.307l21.255,6.54q2.833-9.373,10.355-13.952a32.87,32.87,0,0,1,17.44-4.578q13.625,0,19.838,5.722t6.758,18.149l-3.6.436q-18.859,2.616-29.485,4.415a160.358,160.358,0,0,0-19.02,4.305q-27.795,8.829-27.795,34.88a34.953,34.953,0,0,0,4.632,17.822,33.176,33.176,0,0,0,13.571,12.753q8.935,4.74,21.582,4.741h0Zm-17.222-35.534a14.164,14.164,0,0,1,4.3-10.682,31.9,31.9,0,0,1,11.936-6.758,136.515,136.515,0,0,1,14.224-3.27q7.9-1.416,23.817-3.706l2.834-.436q-0.221,12.1-2.4,18.421a28.4,28.4,0,0,1-5.723,11.336,31.526,31.526,0,0,1-11.39,8.666,38.088,38.088,0,0,1-16.35,3.324q-10.464,0-15.86-4.8a15.493,15.493,0,0,1-5.395-12.1h0ZM965.521,162.77q18.966,0,32.264-9.156t19.075-26.487l-23.108-5.45q-3.707,9.7-10.627,14.66t-17.6,4.96q-15.805,0-24.2-10.954t-8.5-29.7q0.108-18.529,8.339-29.594t24.361-11.063a29.269,29.269,0,0,1,17.6,5.559,30.726,30.726,0,0,1,11.063,15.369l22.672-6.54A46.374,46.374,0,0,0,1006.78,55.3,47.489,47.489,0,0,0,989.12,42.87a60.241,60.241,0,0,0-23.272-4.36q-17.44,0-30.356,7.848a51.71,51.71,0,0,0-19.838,21.964q-6.924,14.117-7.031,32.319,0.108,18.094,6.867,32.155a51.632,51.632,0,0,0,19.566,22.018q12.807,7.956,30.465,7.957h0Zm73.469-3.27h23.21V102.82l49.27,56.68h30.96l-53.85-58.86,48.83-58.86h-28.99L1062.2,98.46V2.54h-23.1Zm147.58,3.27q14.28,0,24.69-5.014a46.021,46.021,0,0,0,17.71-15.369V159.5h20.17V87.015a112.567,112.567,0,0,0-.82-14.66,39.1,39.1,0,0,0-3.33-11.391,34.726,34.726,0,0,0-16.89-16.895q-11.55-5.559-27.8-5.559-19.935,0-32.42,8.72t-16.84,24.307l21.25,6.54q2.835-9.373,10.36-13.952a32.843,32.843,0,0,1,17.44-4.578q13.62,0,19.83,5.722t6.76,18.149l-3.6.436q-18.855,2.616-29.48,4.415a160.358,160.358,0,0,0-19.02,4.305q-27.8,8.829-27.8,34.88a34.949,34.949,0,0,0,4.64,17.822,33.18,33.18,0,0,0,13.57,12.753q8.94,4.74,21.58,4.741h0Zm-17.22-35.534a14.164,14.164,0,0,1,4.3-10.682,31.894,31.894,0,0,1,11.94-6.758,136.189,136.189,0,0,1,14.22-3.27q7.9-1.416,23.82-3.706l2.83-.436q-0.21,12.1-2.39,18.421a28.483,28.483,0,0,1-5.73,11.336,31.457,31.457,0,0,1-11.39,8.666,38.056,38.056,0,0,1-16.35,3.324q-10.455,0-15.86-4.8a15.511,15.511,0,0,1-5.39-12.1h0Zm156.63,87.854q21.135,0,34.77-8.775,13.62-8.775,17.22-26.214a84.233,84.233,0,0,0,1.53-17.44V41.78h-20.17V52.353a44.442,44.442,0,0,0-15.15-10.246,50.724,50.724,0,0,0-19.51-3.6q-16.245,0-28.39,8.012a52.283,52.283,0,0,0-18.75,22.127q-6.6,14.117-6.6,31.883a75.076,75.076,0,0,0,6.54,31.828,52.86,52.86,0,0,0,18.64,22.29q12.105,8.12,28.12,8.121,19.41,0,32.38-11.445v11.118q0.21,15.042-7.74,22.89t-22.67,7.848a32.07,32.07,0,0,1-15.21-3.652,24.76,24.76,0,0,1-10.63-10.845l-21.03,10.682a48.758,48.758,0,0,0,19.56,19.02,56.354,56.354,0,0,0,27.09,6.7h0Zm-30.85-114.559a58.955,58.955,0,0,1,3.6-21.255,31.831,31.831,0,0,1,11.01-14.769q7.41-5.4,18.42-5.4,15.585,0,23.38,11.173t7.79,30.248q0,19.293-7.9,30.466t-24.03,11.172q-10.575,0-17.83-5.45a32.7,32.7,0,0,1-10.84-14.824,59.272,59.272,0,0,1-3.6-21.364h0Zm167.1,62.239A57.352,57.352,0,0,0,1493.4,154a52.932,52.932,0,0,0,20.71-24.362l-22.35-7.085a31.886,31.886,0,0,1-12.2,13.952,34.655,34.655,0,0,1-18.42,4.8q-14.835,0-23.33-8.884t-9.92-25.342h87.75q0.21-4.359.21-6.431,0-19.073-6.59-33.082a48.941,48.941,0,0,0-18.91-21.527q-12.33-7.521-29.21-7.521-17.115,0-30.2,7.739a52.181,52.181,0,0,0-20.27,22.018q-7.2,14.281-7.2,33.354,0,17.985,7.36,31.882a53.041,53.041,0,0,0,20.66,21.583q13.29,7.683,30.74,7.684h0ZM1428.44,89.3q2.175-15.042,10.62-22.835t22.95-7.794q13.515,0,20.98,7.521t9.32,23.108h-63.87Z"/>
</svg>
