<svg xmlns="http://www.w3.org/2000/svg" width="700" height="165" viewBox="0 0 700 165">
  <defs>
    <style>
      .cls-1 {
        fill: #171f2c;
        fill-rule: evenodd;
      }
    </style>
  </defs>
  <path id="SU95X" class="cls-1" d="M70.158,163.77a79.635,79.635,0,0,0,30.247-5.559,50.106,50.106,0,0,0,21.8-16.4q8.12-10.845,8.121-26.106,0-14.061-6.595-22.726a41.464,41.464,0,0,0-15.042-12.7A115.983,115.983,0,0,0,89.56,73.3L60.566,65.125q-11.011-3.05-17.713-7.575t-6.7-13.244a17.893,17.893,0,0,1,4.142-11.554A26.937,26.937,0,0,1,51.519,24.8a41.614,41.614,0,0,1,15.587-2.834A43.627,43.627,0,0,1,84.328,25.34,34.8,34.8,0,0,1,97.681,35.2a33.74,33.74,0,0,1,7.139,15.314l24.416-4.142a58.267,58.267,0,0,0-11.609-24.743,54.659,54.659,0,0,0-21.145-15.8,71.6,71.6,0,0,0-28.5-5.45A73.825,73.825,0,0,0,39.366,5.666a45.408,45.408,0,0,0-20,15.478q-7.3,10.193-7.3,24.253,0,17.114,9.81,26.051t24.743,13.3L86.835,96.626q9.373,2.836,14.551,7.685t5.178,12.916a20.083,20.083,0,0,1-4.742,13.3,30.205,30.205,0,0,1-12.807,8.72A49.192,49.192,0,0,1,71.466,142.3a48.436,48.436,0,0,1-18.857-3.6,38.633,38.633,0,0,1-14.552-10.464,39.271,39.271,0,0,1-8.338-16.35l-23.762,3.6a55.1,55.1,0,0,0,11.281,25.67,56.74,56.74,0,0,0,22.4,16.786,76.852,76.852,0,0,0,30.52,5.831h0Zm145.95,0q18.312,0,32.536-7.576a54.381,54.381,0,0,0,22.127-21.418q7.9-13.842,7.9-32.046V3.54H255.566v97.991q0,12.645-5.614,21.909a37.53,37.53,0,0,1-14.66,14.061,40.974,40.974,0,0,1-38.368.055,37.113,37.113,0,0,1-14.661-14.007q-5.614-9.264-5.613-22.018V3.54l-23.108.109V102.73q0,18.2,7.9,32.046a54.375,54.375,0,0,0,22.127,21.418q14.225,7.575,32.537,7.576h0ZM360.2,0.379a54.161,54.161,0,0,0-46.543,26.16,50.3,50.3,0,0,0-7.3,26.487A52.8,52.8,0,0,0,312.952,79.3a48.458,48.458,0,0,0,18.2,18.53,50.707,50.707,0,0,0,26,6.758,46.734,46.734,0,0,0,18.367-3.706,48.005,48.005,0,0,0,15.423-10.355V109.27a33.187,33.187,0,0,1-16.023,28.34,32.05,32.05,0,0,1-17,4.578,31.171,31.171,0,0,1-14.224-3.379,32.829,32.829,0,0,1-11.282-9.265l-16.677,15.587a52.536,52.536,0,0,0,18.8,13.9,57.733,57.733,0,0,0,23.38,4.741q16.458,0,29.267-7.194a50.266,50.266,0,0,0,19.892-20.219q7.085-13.024,7.085-30.03V56.3a57.686,57.686,0,0,0-7.139-28.667A52.662,52.662,0,0,0,360.2.379h0ZM329.465,53.026A29.828,29.828,0,0,1,333.607,37.6,31.076,31.076,0,0,1,344.78,26.43a30.787,30.787,0,0,1,30.847,0A30.953,30.953,0,0,1,386.8,37.657a30.686,30.686,0,0,1,0,30.793,30.939,30.939,0,0,1-11.227,11.173,30.888,30.888,0,0,1-30.9,0A30.635,30.635,0,0,1,333.553,68.45a30.136,30.136,0,0,1-4.088-15.423h0ZM491.219,163.77a54.042,54.042,0,0,0,27.032-7.085,54.79,54.79,0,0,0,20-19.184,49.3,49.3,0,0,0,7.466-26.378,52.834,52.834,0,0,0-6.594-26.269,48.083,48.083,0,0,0-18.2-18.475,51.252,51.252,0,0,0-26.106-6.7,46.909,46.909,0,0,0-14.061,2.18A44.549,44.549,0,0,0,468,68.177l2.616-43.164h64.31V3.54H450.235l-4.8,82.513,19.838,6.976a32.674,32.674,0,0,1,26.6-12.644,30.232,30.232,0,0,1,15.369,4.087,30.821,30.821,0,0,1,11.282,11.173,30.515,30.515,0,0,1,.054,30.793,31.068,31.068,0,0,1-11.172,11.172,30.59,30.59,0,0,1-28.231,1.308,31.523,31.523,0,0,1-10.682-8.012,28.8,28.8,0,0,1-6.268-11.935l-21.909,5.886a53.2,53.2,0,0,0,28.558,33.954,51.535,51.535,0,0,0,22.345,4.959h0ZM558.8,160.5h28.013l39.567-60.059L665.836,160.5h27.9L640.33,81.039l52.1-77.5H664.419L626.378,61.746,588.119,3.54h-27.9l52.1,77.5Z"/>
</svg>
